{
.appVersion = "1212";
copyright = "2016-2019";
customParameters = (
{
name = panose;
value = (
0,
0,
0,
0,
0,
0,
0,
0,
0,
0
);
},
{
name = unicodeRanges;
value = (
0,
2,
33,
35
);
},
{
name = codePageRanges;
value = (
1252
);
},
{
name = blueScale;
value = 0.037;
}
);
date = "2019-02-07 17:02:56 +0000";
designer = "Froyo Tam";
designerURL = froyotam.info;
disablesNiceNames = 1;
familyName = Blotter;
fontMaster = (
{
ascender = 1500;
capHeight = 1400;
custom = Extra;
descender = -500;
id = "0BD0D975-F19E-4ACA-9A31-41147C737F0B";
name = ExtraLight;
weight = Light;
xHeight = 1000;
},
{
alignmentZones = (
"{1116, 0}",
"{0, 0}",
"{-494, 0}"
);
ascender = 1500;
capHeight = 1400;
customParameters = (
{
name = typoAscender;
value = 1500;
},
{
name = typoDescender;
value = -500;
},
{
name = typoLineGap;
value = 0;
},
{
name = winAscent;
value = 2000;
},
{
name = winDescent;
value = 0;
},
{
name = hheaAscender;
value = 1500;
},
{
name = hheaDescender;
value = -500;
},
{
name = strikeoutPosition;
value = 600;
},
{
name = strikeoutSize;
value = 100;
}
);
descender = -500;
id = "BCBE6FB0-8B5B-4728-88BC-6AD881489723";
userData = {
GSCornerRadius = 90;
};
weightValue = 400;
widthValue = 5;
xHeight = 1000;
}
);
glyphs = (
{
color = 4;
glyphname = A;
lastChange = "2019-02-16 21:16:09 +0000";
layers = (
{
layerId = "BCBE6FB0-8B5B-4728-88BC-6AD881489723";
paths = (
{
closed = 1;
nodes = (
"458 1506 OFFCURVE",
"370 1506 OFFCURVE"
);
},
{
closed = 1;
nodes = (
"506 -9 OFFCURVE",
"627 13 OFFCURVE",
"662 12 OFFCURVE",
"699 20 OFFCURVE",
"740 49 OFFCURVE",
"757 93 OFFCURVE",
"772 165 OFFCURVE",
"791 204 OFFCURVE",
"854 214 OFFCURVE",
"903 208 OFFCURVE",
"953 190 OFFCURVE",
"967 152 OFFCURVE",
"1000 102 OFFCURVE",
"1067 102 OFFCURVE",
"1100 152 OFFCURVE",
"1088 209 OFFCURVE",
"1032 230 OFFCURVE",
"1036 250 OFFCURVE",
"1080 299 OFFCURVE",
"1098 353 OFFCURVE",
"1053 418 OFFCURVE",
"1008 444 OFFCURVE",
"948 468 OFFCURVE",
"926 484 OFFCURVE",
"925 520 OFFCURVE",
"974 612 OFFCURVE",
"994 674 OFFCURVE",
"992 726 OFFCURVE",
"971 825 OFFCURVE",
"978 878 OFFCURVE",
"993 921 OFFCURVE",
"999 946 OFFCURVE",
"998 1060 OFFCURVE",
"968 1212 OFFCURVE",
"837 1329 OFFCURVE",
"672 1306 OFFCURVE",
"630 1328 OFFCURVE",
"607 1364 OFFCURVE",
"590 1400 OFFCURVE",
"581 1418 OFFCURVE",
"556 1457 OFFCURVE",
"467 1506 OFFCURVE",
"408 1506 QCURVE SMOOTH",
"385 1506 OFFCURVE",
"318 1482 OFFCURVE",
"247 1420 OFFCURVE",
"217 1354 OFFCURVE",
"205 1313 OFFCURVE",
"194 1294 OFFCURVE",
"158 1278 OFFCURVE",
"66 1257 OFFCURVE",
"22 1120 OFFCURVE",
"91 1000 OFFCURVE",
"178 1000 QCURVE SMOOTH",
"223 1000 OFFCURVE",
"264 1024 OFFCURVE",
"298 1070 OFFCURVE",
"333 1092 OFFCURVE",
"422 1092 OFFCURVE",
"502 1060 OFFCURVE",
"531 987 OFFCURVE",
"496 918 OFFCURVE",
"455 903 OFFCURVE",
"403 887 OFFCURVE",
"386 883 OFFCURVE",
"345 870 OFFCURVE",
"274 804 OFFCURVE",
"231 718 OFFCURVE",
"238 662 OFFCURVE",
"244 611 OFFCURVE",
"242 566 OFFCURVE",
"204 529 OFFCURVE",
"108 506 OFFCURVE",
"52 400 OFFCURVE",
"54 284 OFFCURVE",
"189 194 OFFCURVE",
"252 144 OFFCURVE",
"289 65 OFFCURVE",
"326 16 OFFCURVE",
"384 -6 OFFCURVE",
"470 -8 QCURVE SMOOTH"
);
},
{
closed = 1;
nodes = (
"630 310 OFFCURVE",
"576 350 OFFCURVE",
"521 383 OFFCURVE",
"464 416 OFFCURVE",
"461 453 OFFCURVE",
"502 480 OFFCURVE",
"532 504 OFFCURVE",
"575 554 OFFCURVE",
"614 554 QCURVE SMOOTH",
"653 554 OFFCURVE",
"720 462 OFFCURVE",
"718 440 OFFCURVE",
"702 396 OFFCURVE",
"694 344 OFFCURVE",
"672 310 OFFCURVE",
"644 310 QCURVE SMOOTH"
);
}
);
width = 1138;
},
{
layerId = "0BD0D975-F19E-4ACA-9A31-41147C737F0B";
paths = (
{
closed = 1;
nodes = (
"458 1506 OFFCURVE",
"370 1506 OFFCURVE"
);
},
{
closed = 1;
nodes = (
"506 -9 OFFCURVE",
"627 13 OFFCURVE",
"662 12 OFFCURVE",
"699 20 OFFCURVE",
"740 49 OFFCURVE",
"757 93 OFFCURVE",
"772 165 OFFCURVE",
"791 204 OFFCURVE",
"854 214 OFFCURVE",
"903 208 OFFCURVE",
"953 190 OFFCURVE",
"967 152 OFFCURVE",
"1000 102 OFFCURVE",
"1067 102 OFFCURVE",
"1100 152 OFFCURVE",
"1088 209 OFFCURVE",
"1032 230 OFFCURVE",
"1036 250 OFFCURVE",
"1080 299 OFFCURVE",
"1098 353 OFFCURVE",
"1053 418 OFFCURVE",
"1008 444 OFFCURVE",
"948 468 OFFCURVE",
"926 484 OFFCURVE",
"925 520 OFFCURVE",
"974 612 OFFCURVE",
"994 674 OFFCURVE",
"992 726 OFFCURVE",
"971 825 OFFCURVE",
"978 878 OFFCURVE",
"993 921 OFFCURVE",
"999 946 OFFCURVE",
"998 1060 OFFCURVE",
"968 1212 OFFCURVE",
"837 1329 OFFCURVE",
"672 1306 OFFCURVE",
"630 1328 OFFCURVE",
"607 1364 OFFCURVE",
"590 1400 OFFCURVE",
"581 1418 OFFCURVE",
"556 1457 OFFCURVE",
"467 1506 OFFCURVE",
"408 1506 QCURVE SMOOTH",
"385 1506 OFFCURVE",
"318 1482 OFFCURVE",
"247 1420 OFFCURVE",
"217 1354 OFFCURVE",
"205 1313 OFFCURVE",
"194 1294 OFFCURVE",
"158 1278 OFFCURVE",
"66 1257 OFFCURVE",
"22 1120 OFFCURVE",
"91 1000 OFFCURVE",
"178 1000 QCURVE SMOOTH",
"223 1000 OFFCURVE",
"264 1024 OFFCURVE",
"298 1070 OFFCURVE",
"333 1092 OFFCURVE",
"422 1092 OFFCURVE",
"502 1060 OFFCURVE",
"531 987 OFFCURVE",
"496 918 OFFCURVE",
"455 903 OFFCURVE",
"403 887 OFFCURVE",
"386 883 OFFCURVE",
"345 870 OFFCURVE",
"274 804 OFFCURVE",
"231 718 OFFCURVE",
"238 662 OFFCURVE",
"244 611 OFFCURVE",
"242 566 OFFCURVE",
"204 529 OFFCURVE",
"108 506 OFFCURVE",
"52 400 OFFCURVE",
"54 284 OFFCURVE",
"189 194 OFFCURVE",
"252 144 OFFCURVE",
"289 65 OFFCURVE",
"326 16 OFFCURVE",
"384 -6 OFFCURVE",
"470 -8 QCURVE SMOOTH"
);
},
{
closed = 1;
nodes = (
"630 310 OFFCURVE",
"576 350 OFFCURVE",
"521 383 OFFCURVE",
"464 416 OFFCURVE",
"461 453 OFFCURVE",
"502 480 OFFCURVE",
"532 504 OFFCURVE",
"575 554 OFFCURVE",
"614 554 QCURVE SMOOTH",
"653 554 OFFCURVE",
"720 462 OFFCURVE",
"718 440 OFFCURVE",
"702 396 OFFCURVE",
"694 344 OFFCURVE",
"672 310 OFFCURVE",
"644 310 QCURVE SMOOTH"
);
}
);
width = 1138;
}
);
note = A;
unicode = 0041;
},
{
color = 4;
glyphname = B;
lastChange = "2019-02-16 21:16:09 +0000";
layers = (
{
layerId = "BCBE6FB0-8B5B-4728-88BC-6AD881489723";
paths = (
{
closed = 1;
nodes = (
"859 -8 OFFCURVE",
"902 36 OFFCURVE",
"902 94 OFFCURVE",
"878 130 OFFCURVE",
"830 174 OFFCURVE",
"830 204 OFFCURVE",
"873 220 OFFCURVE",
"916 220 OFFCURVE",
"1005 196 OFFCURVE",
"1069 194 OFFCURVE",
"1138 236 OFFCURVE",
"1182 306 OFFCURVE",
"1183 400 OFFCURVE",
"1151 463 OFFCURVE",
"1115 499 OFFCURVE",
"1102 517 OFFCURVE",
"1102 537 OFFCURVE",
"1111 555 OFFCURVE",
"1130 584 OFFCURVE",
"1140 605 OFFCURVE",
"1140 639 OFFCURVE",
"1123 663 OFFCURVE",
"1083 695 OFFCURVE",
"1062 725 OFFCURVE",
"1062 796 OFFCURVE",
"1016 878 OFFCURVE",
"932 928 OFFCURVE",
"861 928 OFFCURVE",
"817 915 OFFCURVE",
"765 896 OFFCURVE",
"724 884 OFFCURVE",
"688 884 OFFCURVE",
"632 960 OFFCURVE",
"591 1067 OFFCURVE",
"590 1173 OFFCURVE",
"553 1304 OFFCURVE",
"507 1400 OFFCURVE",
"488 1448 OFFCURVE",
"488 1470 OFFCURVE",
"506 1487 OFFCURVE",
"559 1527 OFFCURVE",
"598 1571 OFFCURVE",
"598 1640 OFFCURVE",
"551 1696 OFFCURVE",
"518 1696 QCURVE SMOOTH",
"496 1696 OFFCURVE",
"470 1678 OFFCURVE",
"460 1651 OFFCURVE",
"447 1598 OFFCURVE",
"433 1564 OFFCURVE",
"401 1541 OFFCURVE",
"375 1543 OFFCURVE",
"343 1553 OFFCURVE",
"318 1560 OFFCURVE",
"203 1560 OFFCURVE",
"64 1459 OFFCURVE",
"64 1260 OFFCURVE",
"98 1044 OFFCURVE",
"154 945 OFFCURVE",
"146 904 OFFCURVE",
"116 848 OFFCURVE",
"104 812 OFFCURVE",
"110 769 OFFCURVE",
"149 724 OFFCURVE",
"147 674 OFFCURVE",
"65 642 OFFCURVE",
"46 510 OFFCURVE",
"54 395 OFFCURVE",
"105 319 OFFCURVE",
"183 262 OFFCURVE",
"197 246 OFFCURVE",
"208 206 OFFCURVE",
"239 110 OFFCURVE",
"370 14 OFFCURVE",
"466 14 OFFCURVE",
"525 22 OFFCURVE",
"561 26 OFFCURVE",
"590 26 OFFCURVE",
"650 20 OFFCURVE",
"676 20 OFFCURVE",
"703 24 OFFCURVE",
"718 26 OFFCURVE",
"739 26 OFFCURVE",
"764 17 OFFCURVE",
"800 -1 OFFCURVE",
"818 -8 OFFCURVE",
"830 -8 QCURVE SMOOTH"
);
},
{
closed = 1;
nodes = (
"669 362 OFFCURVE",
"560 438 OFFCURVE",
"468 520 OFFCURVE",
"468 545 OFFCURVE",
"477 568 OFFCURVE",
"506 580 OFFCURVE",
"545 603 OFFCURVE",
"614 645 OFFCURVE",
"656 674 OFFCURVE",
"666 674 QCURVE SMOOTH",
"690 674 OFFCURVE",
"778 589 OFFCURVE",
"787 519 OFFCURVE",
"762 492 OFFCURVE",
"744 461 OFFCURVE",
"711 395 OFFCURVE",
"688 362 OFFCURVE",
"676 362 QCURVE SMOOTH"
);
}
);
width = 1192;
},
{
layerId = "0BD0D975-F19E-4ACA-9A31-41147C737F0B";
paths = (
{
closed = 1;
nodes = (
"859 -8 OFFCURVE",
"902 36 OFFCURVE",
"902 94 OFFCURVE",
"878 130 OFFCURVE",
"830 174 OFFCURVE",
"830 204 OFFCURVE",
"873 220 OFFCURVE",
"916 220 OFFCURVE",
"1005 196 OFFCURVE",
"1069 194 OFFCURVE",
"1138 236 OFFCURVE",
"1182 306 OFFCURVE",
"1183 400 OFFCURVE",
"1151 463 OFFCURVE",
"1115 499 OFFCURVE",
"1102 517 OFFCURVE",
"1102 537 OFFCURVE",
"1111 555 OFFCURVE",
"1130 584 OFFCURVE",
"1140 605 OFFCURVE",
"1140 639 OFFCURVE",
"1123 663 OFFCURVE",
"1083 695 OFFCURVE",
"1062 725 OFFCURVE",
"1062 796 OFFCURVE",
"1016 878 OFFCURVE",
"932 928 OFFCURVE",
"861 928 OFFCURVE",
"817 915 OFFCURVE",
"765 896 OFFCURVE",
"724 884 OFFCURVE",
"688 884 OFFCURVE",
"632 960 OFFCURVE",
"591 1067 OFFCURVE",
"590 1173 OFFCURVE",
"553 1304 OFFCURVE",
"507 1400 OFFCURVE",
"488 1448 OFFCURVE",
"488 1470 OFFCURVE",
"506 1487 OFFCURVE",
"559 1527 OFFCURVE",
"598 1571 OFFCURVE",
"598 1640 OFFCURVE",
"551 1696 OFFCURVE",
"518 1696 QCURVE SMOOTH",
"496 1696 OFFCURVE",
"470 1678 OFFCURVE",
"460 1651 OFFCURVE",
"447 1598 OFFCURVE",
"433 1564 OFFCURVE",
"401 1541 OFFCURVE",
"375 1543 OFFCURVE",
"343 1553 OFFCURVE",
"318 1560 OFFCURVE",
"203 1560 OFFCURVE",
"64 1459 OFFCURVE",
"64 1260 OFFCURVE",
"98 1044 OFFCURVE",
"154 945 OFFCURVE",
"146 904 OFFCURVE",
"116 848 OFFCURVE",
"104 812 OFFCURVE",
"110 769 OFFCURVE",
"149 724 OFFCURVE",
"147 674 OFFCURVE",
"65 642 OFFCURVE",
"46 510 OFFCURVE",
"54 395 OFFCURVE",
"105 319 OFFCURVE",
"183 262 OFFCURVE",
"197 246 OFFCURVE",
"208 206 OFFCURVE",
"239 110 OFFCURVE",
"370 14 OFFCURVE",
"466 14 OFFCURVE",
"525 22 OFFCURVE",
"561 26 OFFCURVE",
"590 26 OFFCURVE",
"650 20 OFFCURVE",
"676 20 OFFCURVE",
"703 24 OFFCURVE",
"718 26 OFFCURVE",
"739 26 OFFCURVE",
"764 17 OFFCURVE",
"800 -1 OFFCURVE",
"818 -8 OFFCURVE",
"830 -8 QCURVE SMOOTH"
);
},
{
closed = 1;
nodes = (
"669 362 OFFCURVE",
"560 438 OFFCURVE",
"468 520 OFFCURVE",
"468 545 OFFCURVE",
"477 568 OFFCURVE",
"506 580 OFFCURVE",
"545 603 OFFCURVE",
"614 645 OFFCURVE",
"656 674 OFFCURVE",
"666 674 QCURVE SMOOTH",
"690 674 OFFCURVE",
"778 589 OFFCURVE",
"787 519 OFFCURVE",
"762 492 OFFCURVE",
"744 461 OFFCURVE",
"711 395 OFFCURVE",
"688 362 OFFCURVE",
"676 362 QCURVE SMOOTH"
);
}
);
width = 1192;
}
);
note = B;
unicode = 0042;
},
{
color = 4;
glyphname = C;
lastChange = "2019-02-16 21:16:09 +0000";
layers = (
{
layerId = "BCBE6FB0-8B5B-4728-88BC-6AD881489723";
paths = (
{
closed = 1;
nodes = (
"608 -46 OFFCURVE",
"858 61 OFFCURVE",
"908 131 OFFCURVE",
"963 276 OFFCURVE",
"1028 296 OFFCURVE",
"1074 380 OFFCURVE",
"1060 471 OFFCURVE",
"990 533 OFFCURVE",
"910 527 OFFCURVE",
"850 449 OFFCURVE",
"841 368 OFFCURVE",
"828 342 OFFCURVE",
"800 338 OFFCURVE",
"760 344 OFFCURVE",
"671 413 OFFCURVE",
"591 474 OFFCURVE",
"584 488 OFFCURVE",
"569 515 OFFCURVE",
"565 549 OFFCURVE",
"576 568 QCURVE",
"582 577 OFFCURVE",
"589 592 OFFCURVE",
"594 602 OFFCURVE",
"676 688 OFFCURVE",
"698 712 OFFCURVE",
"724 725 OFFCURVE",
"744 722 OFFCURVE",
"805 678 OFFCURVE",
"880 634 OFFCURVE",
"982 640 OFFCURVE",
"1064 708 OFFCURVE",
"1102 816 OFFCURVE",
"1088 914 OFFCURVE",
"1035 993 OFFCURVE",
"910 1048 OFFCURVE",
"836 1000 QCURVE",
"818 990 OFFCURVE",
"752 937 OFFCURVE",
"730 928 OFFCURVE",
"710 937 OFFCURVE",
"596 1058 OFFCURVE",
"498 1062 QCURVE SMOOTH",
"378 1044 OFFCURVE",
"340 971 OFFCURVE",
"320 941 OFFCURVE",
"312 930 OFFCURVE",
"274 880 OFFCURVE",
"198 838 OFFCURVE",
"99 770 OFFCURVE",
"41 545 OFFCURVE",
"47 379 OFFCURVE",
"108 271 OFFCURVE",
"202 210 OFFCURVE",
"279 177 OFFCURVE",
"315 117 OFFCURVE",
"354 54 OFFCURVE",
"414 -24 OFFCURVE",
"461 -46 OFFCURVE",
"536 -46 QCURVE SMOOTH"
);
}
);
width = 1128;
},
{
layerId = "0BD0D975-F19E-4ACA-9A31-41147C737F0B";
paths = (
{
closed = 1;
nodes = (
"608 -46 OFFCURVE",
"858 61 OFFCURVE",
"908 131 OFFCURVE",
"963 276 OFFCURVE",
"1028 296 OFFCURVE",
"1074 380 OFFCURVE",
"1060 471 OFFCURVE",
"990 533 OFFCURVE",
"910 527 OFFCURVE",
"850 449 OFFCURVE",
"841 368 OFFCURVE",
"828 342 OFFCURVE",
"800 338 OFFCURVE",
"760 344 OFFCURVE",
"671 413 OFFCURVE",
"591 474 OFFCURVE",
"584 488 OFFCURVE",
"569 515 OFFCURVE",
"565 549 OFFCURVE",
"576 568 QCURVE",
"582 577 OFFCURVE",
"589 592 OFFCURVE",
"594 602 OFFCURVE",
"676 688 OFFCURVE",
"698 712 OFFCURVE",
"724 725 OFFCURVE",
"744 722 OFFCURVE",
"805 678 OFFCURVE",
"880 634 OFFCURVE",
"982 640 OFFCURVE",
"1064 708 OFFCURVE",
"1102 816 OFFCURVE",
"1088 914 OFFCURVE",
"1035 993 OFFCURVE",
"910 1048 OFFCURVE",
"836 1000 QCURVE",
"818 990 OFFCURVE",
"752 937 OFFCURVE",
"730 928 OFFCURVE",
"710 937 OFFCURVE",
"596 1058 OFFCURVE",
"498 1062 QCURVE SMOOTH",
"378 1044 OFFCURVE",
"340 971 OFFCURVE",
"320 941 OFFCURVE",
"312 930 OFFCURVE",
"274 880 OFFCURVE",
"198 838 OFFCURVE",
"99 770 OFFCURVE",
"41 545 OFFCURVE",
"47 379 OFFCURVE",
"108 271 OFFCURVE",
"202 210 OFFCURVE",
"279 177 OFFCURVE",
"315 117 OFFCURVE",
"354 54 OFFCURVE",
"414 -24 OFFCURVE",
"461 -46 OFFCURVE",
"536 -46 QCURVE SMOOTH"
);
}
);
width = 1128;
}
);
note = C;
unicode = 0043;
},
{
color = 4;
glyphname = D;
lastChange = "2019-02-16 21:16:09 +0000";
layers = (
{
layerId = "BCBE6FB0-8B5B-4728-88BC-6AD881489723";
paths = (
{
closed = 1;
nodes = (
"552 6 OFFCURVE",
"691 67 OFFCURVE",
"782 77 OFFCURVE",
"846 112 OFFCURVE",
"885 167 OFFCURVE",
"926 200 OFFCURVE",
"991 233 OFFCURVE",
"1034 305 OFFCURVE",
"1036 383 OFFCURVE",
"1056 433 OFFCURVE",
"1114 485 OFFCURVE",
"1120 574 OFFCURVE",
"1077 636 OFFCURVE",
"1070 692 OFFCURVE",
"1119 835 OFFCURVE",
"1070 1023 OFFCURVE",
"1079 1181 OFFCURVE",
"1036 1317 OFFCURVE",
"1055 1430 OFFCURVE",
"1042 1535 OFFCURVE",
"978 1616 OFFCURVE",
"885 1645 OFFCURVE",
"838 1626 QCURVE",
"791 1605 OFFCURVE",
"737 1522 OFFCURVE",
"730 1442 OFFCURVE",
"738 1322 OFFCURVE",
"707 1239 OFFCURVE",
"692 1182 OFFCURVE",
"682 1141 OFFCURVE",
"653 1058 OFFCURVE",
"564 1058 OFFCURVE",
"381 1070 OFFCURVE",
"248 869 OFFCURVE",
"78 755 OFFCURVE",
"44 548 OFFCURVE",
"70 343 OFFCURVE",
"181 283 OFFCURVE",
"208 269 OFFCURVE",
"261 251 OFFCURVE",
"301 148 OFFCURVE",
"384 6 OFFCURVE",
"490 6 QCURVE SMOOTH"
);
},
{
closed = 1;
nodes = (
"646 418 OFFCURVE",
"589 523 OFFCURVE",
"587 557 OFFCURVE",
"619 613 OFFCURVE",
"672 610 QCURVE",
"678 610 OFFCURVE",
"797 566 OFFCURVE",
"845 539 OFFCURVE",
"851 509 OFFCURVE",
"835 489 OFFCURVE",
"814 466 OFFCURVE",
"752 411 OFFCURVE",
"718 420 QCURVE"
);
},
{
closed = 1;
nodes = (
"1145 25 OFFCURVE",
"1203 81 OFFCURVE",
"1206 170 OFFCURVE",
"1146 234 OFFCURVE",
"1100 234 QCURVE",
"1062 237 OFFCURVE",
"1010 186 OFFCURVE",
"1006 117 OFFCURVE",
"1032 62 OFFCURVE",
"1081 28 OFFCURVE",
"1108 28 QCURVE"
);
}
);
width = 1194;
},
{
layerId = "0BD0D975-F19E-4ACA-9A31-41147C737F0B";
paths = (
{
closed = 1;
nodes = (
"552 6 OFFCURVE",
"691 67 OFFCURVE",
"782 77 OFFCURVE",
"846 112 OFFCURVE",
"885 167 OFFCURVE",
"926 200 OFFCURVE",
"991 233 OFFCURVE",
"1034 305 OFFCURVE",
"1036 383 OFFCURVE",
"1056 433 OFFCURVE",
"1114 485 OFFCURVE",
"1120 574 OFFCURVE",
"1077 636 OFFCURVE",
"1070 692 OFFCURVE",
"1119 835 OFFCURVE",
"1070 1023 OFFCURVE",
"1079 1181 OFFCURVE",
"1036 1317 OFFCURVE",
"1055 1430 OFFCURVE",
"1042 1535 OFFCURVE",
"978 1616 OFFCURVE",
"885 1645 OFFCURVE",
"838 1626 QCURVE",
"791 1605 OFFCURVE",
"737 1522 OFFCURVE",
"730 1442 OFFCURVE",
"738 1322 OFFCURVE",
"707 1239 OFFCURVE",
"692 1182 OFFCURVE",
"682 1141 OFFCURVE",
"653 1058 OFFCURVE",
"564 1058 OFFCURVE",
"381 1070 OFFCURVE",
"248 869 OFFCURVE",
"78 755 OFFCURVE",
"44 548 OFFCURVE",
"70 343 OFFCURVE",
"181 283 OFFCURVE",
"208 269 OFFCURVE",
"261 251 OFFCURVE",
"301 148 OFFCURVE",
"384 6 OFFCURVE",
"490 6 QCURVE SMOOTH"
);
},
{
closed = 1;
nodes = (
"646 418 OFFCURVE",
"589 523 OFFCURVE",
"587 557 OFFCURVE",
"619 613 OFFCURVE",
"672 610 QCURVE",
"678 610 OFFCURVE",
"797 566 OFFCURVE",
"845 539 OFFCURVE",
"851 509 OFFCURVE",
"835 489 OFFCURVE",
"814 466 OFFCURVE",
"752 411 OFFCURVE",
"718 420 QCURVE"
);
},
{
closed = 1;
nodes = (
"1145 25 OFFCURVE",
"1203 81 OFFCURVE",
"1206 170 OFFCURVE",
"1146 234 OFFCURVE",
"1100 234 QCURVE",
"1062 237 OFFCURVE",
"1010 186 OFFCURVE",
"1006 117 OFFCURVE",
"1032 62 OFFCURVE",
"1081 28 OFFCURVE",
"1108 28 QCURVE"
);
}
);
width = 1194;
}
);
note = D;
unicode = 0044;
},
{
color = 4;
glyphname = E;
lastChange = "2019-02-16 21:16:09 +0000";
layers = (
{
layerId = "BCBE6FB0-8B5B-4728-88BC-6AD881489723";
paths = (
{
closed = 1;
nodes = (
"401 -35 OFFCURVE",
"452 -32 OFFCURVE",
"516 -10 OFFCURVE",
"568 -13 OFFCURVE",
"629 -42 OFFCURVE",
"687 -31 OFFCURVE",
"718 0 OFFCURVE",
"738 30 OFFCURVE",
"748 34 OFFCURVE",
"788 23 OFFCURVE",
"830 0 OFFCURVE",
"900 8 OFFCURVE",
"951 52 OFFCURVE",
"967 100 OFFCURVE",
"973 121 OFFCURVE",
"979 136 OFFCURVE",
"993 150 OFFCURVE",
"1026 150 OFFCURVE",
"1053 153 OFFCURVE",
"1091 167 OFFCURVE",
"1118 220 OFFCURVE",
"1110 275 OFFCURVE",
"1067 316 OFFCURVE",
"1016 316 OFFCURVE",
"989 298 OFFCURVE",
"952 264 OFFCURVE",
"840 231 OFFCURVE",
"777 203 OFFCURVE",
"749 164 OFFCURVE",
"736 150 OFFCURVE",
"715 140 OFFCURVE",
"690 141 OFFCURVE",
"650 165 OFFCURVE",
"628 201 OFFCURVE",
"628 234 QCURVE",
"647 297 OFFCURVE",
"701 286 OFFCURVE",
"740 274 OFFCURVE",
"783 274 OFFCURVE",
"835 297 OFFCURVE",
"861 333 OFFCURVE",
"872 378 OFFCURVE",
"884 390 OFFCURVE",
"949 402 OFFCURVE",
"964 410 OFFCURVE",
"997 428 OFFCURVE",
"1032 445 OFFCURVE",
"1078 469 OFFCURVE",
"1110 514 OFFCURVE",
"1110 578 OFFCURVE",
"1119 634 OFFCURVE",
"1141 741 OFFCURVE",
"1108 834 OFFCURVE",
"1034 898 OFFCURVE",
"902 908 OFFCURVE",
"854 934 OFFCURVE",
"810 976 OFFCURVE",
"703 1045 OFFCURVE",
"680 1046 QCURVE SMOOTH",
"602 1050 OFFCURVE",
"514 1008 OFFCURVE",
"476 954 OFFCURVE",
"450 908 OFFCURVE",
"440 891 OFFCURVE",
"433 856 OFFCURVE",
"395 839 OFFCURVE",
"190 848 OFFCURVE",
"109 713 OFFCURVE",
"88 659 OFFCURVE",
"30 506 OFFCURVE",
"62 393 OFFCURVE",
"138 336 OFFCURVE",
"180 300 OFFCURVE",
"198 267 OFFCURVE",
"209 86 OFFCURVE",
"299 -19 OFFCURVE",
"368 -26 QCURVE"
);
},
{
closed = 1;
nodes = (
"798 500 OFFCURVE",
"752 502 OFFCURVE",
"692 492 OFFCURVE",
"674 495 OFFCURVE",
"621 514 OFFCURVE",
"576 531 OFFCURVE",
"541 551 OFFCURVE",
"524 577 OFFCURVE",
"531 610 OFFCURVE",
"549 628 OFFCURVE",
"587 636 OFFCURVE",
"629 640 OFFCURVE",
"700 640 QCURVE",
"744 647 OFFCURVE",
"822 599 OFFCURVE",
"858 524 OFFCURVE",
"868 504 OFFCURVE",
"852 490 OFFCURVE",
"836 492 QCURVE SMOOTH"
);
}
);
width = 1192;
},
{
layerId = "0BD0D975-F19E-4ACA-9A31-41147C737F0B";
paths = (
{
closed = 1;
nodes = (
"691 1061 OFFCURVE"
);
},
{
closed = 1;
nodes = (
"401 -35 OFFCURVE",
"452 -32 OFFCURVE",
"516 -10 OFFCURVE",
"568 -13 OFFCURVE",
"629 -42 OFFCURVE",
"687 -31 OFFCURVE",
"718 0 OFFCURVE",
"738 30 OFFCURVE",
"748 34 OFFCURVE",
"788 23 OFFCURVE",
"830 0 OFFCURVE",
"900 8 OFFCURVE",
"951 52 OFFCURVE",
"967 100 OFFCURVE",
"973 121 OFFCURVE",
"979 136 OFFCURVE",
"993 150 OFFCURVE",
"1026 150 OFFCURVE",
"1053 153 OFFCURVE",
"1091 167 OFFCURVE",
"1118 220 OFFCURVE",
"1110 275 OFFCURVE",
"1067 316 OFFCURVE",
"1016 316 OFFCURVE",
"989 298 OFFCURVE",
"952 264 OFFCURVE",
"840 231 OFFCURVE",
"777 203 OFFCURVE",
"749 164 OFFCURVE",
"736 150 OFFCURVE",
"715 140 OFFCURVE",
"690 141 OFFCURVE",
"650 165 OFFCURVE",
"628 201 OFFCURVE",
"628 234 QCURVE",
"647 297 OFFCURVE",
"701 286 OFFCURVE",
"740 274 OFFCURVE",
"783 274 OFFCURVE",
"835 297 OFFCURVE",
"861 333 OFFCURVE",
"872 378 OFFCURVE",
"884 390 OFFCURVE",
"949 402 OFFCURVE",
"964 410 OFFCURVE",
"997 428 OFFCURVE",
"1032 445 OFFCURVE",
"1078 469 OFFCURVE",
"1110 514 OFFCURVE",
"1110 578 OFFCURVE",
"1119 634 OFFCURVE",
"1141 741 OFFCURVE",
"1108 834 OFFCURVE",
"1034 898 OFFCURVE",
"902 908 OFFCURVE",
"854 934 OFFCURVE",
"810 976 OFFCURVE",
"703 1045 OFFCURVE",
"680 1046 QCURVE SMOOTH",
"602 1050 OFFCURVE",
"514 1008 OFFCURVE",
"476 954 OFFCURVE",
"450 908 OFFCURVE",
"440 891 OFFCURVE",
"433 856 OFFCURVE",
"395 839 OFFCURVE",
"190 848 OFFCURVE",
"109 713 OFFCURVE",
"88 659 OFFCURVE",
"30 506 OFFCURVE",
"62 393 OFFCURVE",
"138 336 OFFCURVE",
"180 300 OFFCURVE",
"198 267 OFFCURVE",
"209 86 OFFCURVE",
"299 -19 OFFCURVE",
"368 -26 QCURVE"
);
},
{
closed = 1;
nodes = (
"798 500 OFFCURVE",
"752 502 OFFCURVE",
"692 492 OFFCURVE",
"674 495 OFFCURVE",
"621 514 OFFCURVE",
"576 531 OFFCURVE",
"541 551 OFFCURVE",
"524 577 OFFCURVE",
"531 610 OFFCURVE",
"549 628 OFFCURVE",
"587 636 OFFCURVE",
"629 640 OFFCURVE",
"700 640 QCURVE",
"744 647 OFFCURVE",
"822 599 OFFCURVE",
"858 524 OFFCURVE",
"868 504 OFFCURVE",
"852 490 OFFCURVE",
"836 492 QCURVE SMOOTH"
);
}
);
width = 1192;
}
);
note = E;
unicode = 0045;
},
{
color = 4;
glyphname = F;
lastChange = "2019-02-16 21:16:09 +0000";
layers = (
{
layerId = "BCBE6FB0-8B5B-4728-88BC-6AD881489723";
paths = (
{
closed = 1;
nodes = (
"448 -34 OFFCURVE",
"457 -14 OFFCURVE",
"481 22 OFFCURVE",
"490 49 OFFCURVE",
"492 142 OFFCURVE",
"491 195 OFFCURVE",
"477 253 OFFCURVE",
"492 282 OFFCURVE",
"539 300 OFFCURVE",
"575 311 OFFCURVE",
"633 345 OFFCURVE",
"684 432 OFFCURVE",
"684 535 OFFCURVE",
"642 602 OFFCURVE",
"603 646 OFFCURVE",
"578 675 OFFCURVE",
"550 714 OFFCURVE",
"558 740 OFFCURVE",
"590 750 OFFCURVE",
"623 761 OFFCURVE",
"670 827 OFFCURVE",
"663 881 OFFCURVE",
"632 915 OFFCURVE",
"583 923 OFFCURVE",
"553 920 OFFCURVE",
"520 915 OFFCURVE",
"499 936 OFFCURVE",
"490 968 OFFCURVE",
"459 1174 OFFCURVE",
"486 1256 OFFCURVE",
"508 1270 OFFCURVE",
"599 1270 OFFCURVE",
"618 1269 OFFCURVE",
"688 1276 OFFCURVE",
"790 1356 OFFCURVE",
"792 1502 OFFCURVE",
"679 1638 OFFCURVE",
"634 1638 QCURVE SMOOTH",
"596 1638 OFFCURVE",
"536 1628 OFFCURVE",
"504 1608 OFFCURVE",
"455 1551 OFFCURVE",
"447 1493 OFFCURVE",
"424 1441 OFFCURVE",
"402 1428 OFFCURVE",
"324 1440 OFFCURVE",
"240 1440 OFFCURVE",
"143 1344 OFFCURVE",
"134 1242 OFFCURVE",
"140 1148 OFFCURVE",
"10 921 OFFCURVE",
"6 798 OFFCURVE",
"57 701 OFFCURVE",
"149 539 OFFCURVE",
"251 470 OFFCURVE",
"278 449 OFFCURVE",
"282 418 OFFCURVE",
"268 392 OFFCURVE",
"252 368 OFFCURVE",
"198 284 OFFCURVE",
"255 193 OFFCURVE",
"280 145 OFFCURVE",
"284 137 OFFCURVE",
"301 110 OFFCURVE",
"386 -36 OFFCURVE",
"418 -32 QCURVE"
);
}
);
width = 746;
},
{
layerId = "0BD0D975-F19E-4ACA-9A31-41147C737F0B";
paths = (
{
closed = 1;
nodes = (
"448 -34 OFFCURVE",
"457 -14 OFFCURVE",
"481 22 OFFCURVE",
"490 49 OFFCURVE",
"492 142 OFFCURVE",
"491 195 OFFCURVE",
"477 253 OFFCURVE",
"492 282 OFFCURVE",
"539 300 OFFCURVE",
"575 311 OFFCURVE",
"633 345 OFFCURVE",
"684 432 OFFCURVE",
"684 535 OFFCURVE",
"642 602 OFFCURVE",
"603 646 OFFCURVE",
"578 675 OFFCURVE",
"550 714 OFFCURVE",
"558 740 OFFCURVE",
"590 750 OFFCURVE",
"623 761 OFFCURVE",
"670 827 OFFCURVE",
"663 881 OFFCURVE",
"632 915 OFFCURVE",
"583 923 OFFCURVE",
"553 920 OFFCURVE",
"520 915 OFFCURVE",
"499 936 OFFCURVE",
"490 968 OFFCURVE",
"459 1174 OFFCURVE",
"486 1256 OFFCURVE",
"508 1270 OFFCURVE",
"599 1270 OFFCURVE",
"618 1269 OFFCURVE",
"688 1276 OFFCURVE",
"790 1356 OFFCURVE",
"792 1502 OFFCURVE",
"679 1638 OFFCURVE",
"634 1638 QCURVE SMOOTH",
"596 1638 OFFCURVE",
"536 1628 OFFCURVE",
"504 1608 OFFCURVE",
"455 1551 OFFCURVE",
"447 1493 OFFCURVE",
"424 1441 OFFCURVE",
"402 1428 OFFCURVE",
"324 1440 OFFCURVE",
"240 1440 OFFCURVE",
"143 1344 OFFCURVE",
"134 1242 OFFCURVE",
"140 1148 OFFCURVE",
"10 921 OFFCURVE",
"6 798 OFFCURVE",
"57 701 OFFCURVE",
"149 539 OFFCURVE",
"251 470 OFFCURVE",
"278 449 OFFCURVE",
"282 418 OFFCURVE",
"268 392 OFFCURVE",
"252 368 OFFCURVE",
"198 284 OFFCURVE",
"255 193 OFFCURVE",
"280 145 OFFCURVE",
"284 137 OFFCURVE",
"301 110 OFFCURVE",
"386 -36 OFFCURVE",
"418 -32 QCURVE"
);
}
);
width = 746;
}
);
note = F;
unicode = 0046;
},
{
color = 4;
glyphname = G;
lastChange = "2019-02-16 21:16:09 +0000";
layers = (
{
layerId = "BCBE6FB0-8B5B-4728-88BC-6AD881489723";
paths = (
{
closed = 1;
nodes = (
"674 -436 OFFCURVE",
"750 -317 OFFCURVE",
"802 -274 OFFCURVE",
"845 -258 OFFCURVE",
"876 -246 OFFCURVE",
"940 -203 OFFCURVE",
"973 -124 OFFCURVE",
"982 -71 OFFCURVE",
"976 -28 OFFCURVE",
"962 60 OFFCURVE",
"960 103 OFFCURVE",
"950 139 OFFCURVE",
"950 158 OFFCURVE",
"961 185 OFFCURVE",
"998 248 OFFCURVE",
"977 313 OFFCURVE",
"935 352 OFFCURVE",
"908 364 OFFCURVE",
"900 385 OFFCURVE",
"924 442 OFFCURVE",
"924 497 OFFCURVE",
"943 557 OFFCURVE",
"989 603 OFFCURVE",
"989 661 OFFCURVE",
"958 692 OFFCURVE",
"949 706 OFFCURVE",
"921 721 OFFCURVE",
"918 764 OFFCURVE",
"940 800 OFFCURVE",
"948 850 OFFCURVE",
"960 939 OFFCURVE",
"858 1070 OFFCURVE",
"798 1070 QCURVE SMOOTH",
"742 1070 OFFCURVE",
"715 1062 OFFCURVE",
"663 1037 OFFCURVE",
"617 1012 OFFCURVE",
"588 1004 OFFCURVE",
"540 1016 OFFCURVE",
"520 1026 OFFCURVE",
"492 1037 OFFCURVE",
"453 1046 OFFCURVE",
"383 1046 OFFCURVE",
"297 1005 OFFCURVE",
"235 928 OFFCURVE",
"187 886 OFFCURVE",
"94 832 OFFCURVE",
"47 731 OFFCURVE",
"75 597 OFFCURVE",
"39 487 OFFCURVE",
"65 407 OFFCURVE",
"112 346 OFFCURVE",
"187 314 OFFCURVE",
"248 270 OFFCURVE",
"324 201 OFFCURVE",
"400 159 OFFCURVE",
"543 142 OFFCURVE",
"568 113 OFFCURVE",
"578 56 OFFCURVE",
"582 17 OFFCURVE",
"590 -46 OFFCURVE",
"563 -108 OFFCURVE",
"512 -138 OFFCURVE",
"495 -155 OFFCURVE",
"447 -212 OFFCURVE",
"432 -245 OFFCURVE",
"432 -338 OFFCURVE",
"534 -431 OFFCURVE",
"566 -439 OFFCURVE",
"608 -438 QCURVE SMOOTH"
);
},
{
closed = 1;
nodes = (
"620 556 OFFCURVE",
"552 596 OFFCURVE",
"532 614 OFFCURVE",
"497 638 OFFCURVE",
"545 702 OFFCURVE",
"583 726 OFFCURVE",
"620 726 QCURVE",
"632 725 OFFCURVE",
"668 709 OFFCURVE",
"715 691 OFFCURVE",
"779 665 OFFCURVE",
"784 637 OFFCURVE",
"750 607 OFFCURVE",
"729 597 OFFCURVE",
"720 593 OFFCURVE",
"685 561 OFFCURVE",
"676 562 OFFCURVE",
"648 556 QCURVE"
);
}
);
width = 1036;
},
{
layerId = "0BD0D975-F19E-4ACA-9A31-41147C737F0B";
paths = (
{
closed = 1;
nodes = (
"674 -436 OFFCURVE",
"750 -317 OFFCURVE",
"802 -274 OFFCURVE",
"845 -258 OFFCURVE",
"876 -246 OFFCURVE",
"940 -203 OFFCURVE",
"973 -124 OFFCURVE",
"982 -71 OFFCURVE",
"976 -28 OFFCURVE",
"962 60 OFFCURVE",
"960 103 OFFCURVE",
"950 139 OFFCURVE",
"950 158 OFFCURVE",
"961 185 OFFCURVE",
"998 248 OFFCURVE",
"977 313 OFFCURVE",
"935 352 OFFCURVE",
"908 364 OFFCURVE",
"900 385 OFFCURVE",
"924 442 OFFCURVE",
"924 497 OFFCURVE",
"943 557 OFFCURVE",
"989 603 OFFCURVE",
"989 661 OFFCURVE",
"958 692 OFFCURVE",
"949 706 OFFCURVE",
"921 721 OFFCURVE",
"918 764 OFFCURVE",
"940 800 OFFCURVE",
"948 850 OFFCURVE",
"960 939 OFFCURVE",
"858 1070 OFFCURVE",
"798 1070 QCURVE SMOOTH",
"742 1070 OFFCURVE",
"715 1062 OFFCURVE",
"663 1037 OFFCURVE",
"617 1012 OFFCURVE",
"588 1004 OFFCURVE",
"540 1016 OFFCURVE",
"520 1026 OFFCURVE",
"492 1037 OFFCURVE",
"453 1046 OFFCURVE",
"383 1046 OFFCURVE",
"297 1005 OFFCURVE",
"235 928 OFFCURVE",
"187 886 OFFCURVE",
"94 832 OFFCURVE",
"47 731 OFFCURVE",
"75 597 OFFCURVE",
"39 487 OFFCURVE",
"65 407 OFFCURVE",
"112 346 OFFCURVE",
"187 314 OFFCURVE",
"248 270 OFFCURVE",
"324 201 OFFCURVE",
"400 159 OFFCURVE",
"543 142 OFFCURVE",
"568 113 OFFCURVE",
"578 56 OFFCURVE",
"582 17 OFFCURVE",
"590 -46 OFFCURVE",
"563 -108 OFFCURVE",
"512 -138 OFFCURVE",
"495 -155 OFFCURVE",
"447 -212 OFFCURVE",
"432 -245 OFFCURVE",
"432 -338 OFFCURVE",
"534 -431 OFFCURVE",
"566 -439 OFFCURVE",
"608 -438 QCURVE SMOOTH"
);
},
{
closed = 1;
nodes = (
"620 556 OFFCURVE",
"552 596 OFFCURVE",
"532 614 OFFCURVE",
"497 638 OFFCURVE",
"545 702 OFFCURVE",
"583 726 OFFCURVE",
"620 726 QCURVE",
"632 725 OFFCURVE",
"668 709 OFFCURVE",
"715 691 OFFCURVE",
"779 665 OFFCURVE",
"784 637 OFFCURVE",
"750 607 OFFCURVE",
"729 597 OFFCURVE",
"720 593 OFFCURVE",
"685 561 OFFCURVE",
"676 562 OFFCURVE",
"648 556 QCURVE"
);
}
);
width = 1036;
}
);
note = G;
unicode = 0047;
},
{
color = 4;
glyphname = H;
lastChange = "2019-02-16 21:16:09 +0000";
layers = (
{
layerId = "BCBE6FB0-8B5B-4728-88BC-6AD881489723";
paths = (
{
closed = 1;
nodes = (
"665 554 OFFCURVE",
"680 546 OFFCURVE",
"700 520 OFFCURVE",
"719 482 OFFCURVE",
"750 392 OFFCURVE",
"783 341 OFFCURVE",
"832 317 OFFCURVE",
"868 324 QCURVE SMOOTH",
"902 331 OFFCURVE",
"948 380 OFFCURVE",
"956 415 OFFCURVE",
"960 428 OFFCURVE",
"960 438 OFFCURVE",
"956 533 OFFCURVE",
"1003 607 OFFCURVE",
"1018 674 OFFCURVE",
"984 774 OFFCURVE",
"916 824 OFFCURVE",
"877 844 OFFCURVE",
"811 844 OFFCURVE",
"755 880 OFFCURVE",
"725 951 OFFCURVE",
"669 980 OFFCURVE",
"622 980 OFFCURVE",
"596 970 OFFCURVE",
"555 966 OFFCURVE",
"532 968 OFFCURVE",
"514 986 OFFCURVE",
"504 1020 OFFCURVE",
"501 1037 OFFCURVE",
"476 1120 OFFCURVE",
"453 1193 OFFCURVE",
"446 1256 OFFCURVE",
"454 1327 OFFCURVE",
"454 1381 OFFCURVE",
"436 1438 OFFCURVE",
"386 1500 OFFCURVE",
"312 1535 OFFCURVE",
"270 1530 QCURVE SMOOTH",
"210 1523 OFFCURVE",
"130 1442 OFFCURVE",
"127 1240 OFFCURVE",
"103 1136 OFFCURVE",
"25 953 OFFCURVE",
"18 880 OFFCURVE",
"38 823 OFFCURVE",
"42 801 OFFCURVE",
"48 761 OFFCURVE",
"61 705 OFFCURVE",
"84 634 OFFCURVE",
"141 534 OFFCURVE",
"176 451 OFFCURVE",
"197 361 OFFCURVE",
"190 282 OFFCURVE",
"206 218 OFFCURVE",
"272 108 OFFCURVE",
"320 33 OFFCURVE",
"354 -13 OFFCURVE",
"390 -66 OFFCURVE",
"436 -66 QCURVE SMOOTH",
"470 -66 OFFCURVE",
"504 -39 OFFCURVE",
"521 4 OFFCURVE",
"524 23 OFFCURVE",
"539 127 OFFCURVE",
"517 244 OFFCURVE",
"528 290 OFFCURVE",
"617 402 OFFCURVE",
"639 502 OFFCURVE",
"643 529 OFFCURVE",
"652 560 QCURVE"
);
},
{
closed = 1;
nodes = (
"898 108 OFFCURVE",
"958 158 OFFCURVE",
"964 206 OFFCURVE",
"922 264 OFFCURVE",
"874 266 QCURVE",
"842 266 OFFCURVE",
"790 216 OFFCURVE",
"790 152 OFFCURVE",
"849 108 OFFCURVE",
"878 108 QCURVE SMOOTH"
);
}
);
width = 1048;
},
{
layerId = "0BD0D975-F19E-4ACA-9A31-41147C737F0B";
paths = (
{
closed = 1;
nodes = (
"665 554 OFFCURVE",
"680 546 OFFCURVE",
"700 520 OFFCURVE",
"719 482 OFFCURVE",
"750 392 OFFCURVE",
"783 341 OFFCURVE",
"832 317 OFFCURVE",
"868 324 QCURVE SMOOTH",
"902 331 OFFCURVE",
"948 380 OFFCURVE",
"956 415 OFFCURVE",
"960 428 OFFCURVE",
"960 438 OFFCURVE",
"956 533 OFFCURVE",
"1003 607 OFFCURVE",
"1018 674 OFFCURVE",
"984 774 OFFCURVE",
"916 824 OFFCURVE",
"877 844 OFFCURVE",
"811 844 OFFCURVE",
"755 880 OFFCURVE",
"725 951 OFFCURVE",
"669 980 OFFCURVE",
"622 980 OFFCURVE",
"596 970 OFFCURVE",
"555 966 OFFCURVE",
"532 968 OFFCURVE",
"514 986 OFFCURVE",
"504 1020 OFFCURVE",
"501 1037 OFFCURVE",
"476 1120 OFFCURVE",
"453 1193 OFFCURVE",
"446 1256 OFFCURVE",
"454 1327 OFFCURVE",
"454 1381 OFFCURVE",
"436 1438 OFFCURVE",
"386 1500 OFFCURVE",
"312 1535 OFFCURVE",
"270 1530 QCURVE SMOOTH",
"210 1523 OFFCURVE",
"130 1442 OFFCURVE",
"127 1240 OFFCURVE",
"103 1136 OFFCURVE",
"25 953 OFFCURVE",
"18 880 OFFCURVE",
"38 823 OFFCURVE",
"42 801 OFFCURVE",
"48 761 OFFCURVE",
"61 705 OFFCURVE",
"84 634 OFFCURVE",
"141 534 OFFCURVE",
"176 451 OFFCURVE",
"197 361 OFFCURVE",
"190 282 OFFCURVE",
"206 218 OFFCURVE",
"272 108 OFFCURVE",
"320 33 OFFCURVE",
"354 -13 OFFCURVE",
"390 -66 OFFCURVE",
"436 -66 QCURVE SMOOTH",
"470 -66 OFFCURVE",
"504 -39 OFFCURVE",
"521 4 OFFCURVE",
"524 23 OFFCURVE",
"539 127 OFFCURVE",
"517 244 OFFCURVE",
"528 290 OFFCURVE",
"617 402 OFFCURVE",
"639 502 OFFCURVE",
"643 529 OFFCURVE",
"652 560 QCURVE"
);
},
{
closed = 1;
nodes = (
"898 108 OFFCURVE",
"958 158 OFFCURVE",
"964 206 OFFCURVE",
"922 264 OFFCURVE",
"874 266 QCURVE",
"842 266 OFFCURVE",
"790 216 OFFCURVE",
"790 152 OFFCURVE",
"849 108 OFFCURVE",
"878 108 QCURVE SMOOTH"
);
}
);
width = 1048;
}
);
note = H;
unicode = 0048;
},
{
color = 4;
glyphname = I;
lastChange = "2019-02-16 21:16:09 +0000";
layers = (
{
layerId = "BCBE6FB0-8B5B-4728-88BC-6AD881489723";
paths = (
{
closed = 1;
nodes = (
"344 1060 OFFCURVE",
"434 1179 OFFCURVE",
"434 1274 OFFCURVE",
"402 1328 OFFCURVE",
"336 1378 OFFCURVE",
"284 1378 QCURVE SMOOTH",
"248 1378 OFFCURVE",
"136 1322 OFFCURVE",
"91 1303 OFFCURVE",
"43 1298 OFFCURVE",
"24 1271 OFFCURVE",
"12 1214 OFFCURVE",
"32 1178 OFFCURVE",
"59 1162 OFFCURVE",
"81 1152 OFFCURVE",
"126 1137 OFFCURVE",
"200 1089 OFFCURVE",
"233 1080 OFFCURVE",
"253 1060 OFFCURVE",
"290 1060 QCURVE SMOOTH"
);
},
{
closed = 1;
nodes = (
"418 -64 OFFCURVE",
"476 15 OFFCURVE",
"460 98 OFFCURVE",
"454 146 OFFCURVE",
"458 183 OFFCURVE",
"493 213 OFFCURVE",
"553 284 OFFCURVE",
"581 380 OFFCURVE",
"551 469 OFFCURVE",
"512 545 OFFCURVE",
"493 652 OFFCURVE",
"478 704 OFFCURVE",
"442 782 OFFCURVE",
"356 982 OFFCURVE",
"292 982 QCURVE SMOOTH",
"252 982 OFFCURVE",
"212 947 OFFCURVE",
"184 935 OFFCURVE",
"150 879 OFFCURVE",
"21 833 OFFCURVE",
"80 682 OFFCURVE",
"78 583 OFFCURVE",
"120 488 OFFCURVE",
"138 454 OFFCURVE",
"155 428 OFFCURVE",
"190 364 OFFCURVE",
"205 267 OFFCURVE",
"187 161 OFFCURVE",
"199 112 OFFCURVE",
"226 70 OFFCURVE",
"243 44 OFFCURVE",
"268 5 OFFCURVE",
"307 -46 OFFCURVE",
"342 -68 OFFCURVE",
"378 -66 QCURVE SMOOTH"
);
}
);
width = 620;
},
{
layerId = "0BD0D975-F19E-4ACA-9A31-41147C737F0B";
paths = (
{
closed = 1;
nodes = (
"344 1060 OFFCURVE",
"434 1179 OFFCURVE",
"434 1274 OFFCURVE",
"402 1328 OFFCURVE",
"336 1378 OFFCURVE",
"284 1378 QCURVE SMOOTH",
"248 1378 OFFCURVE",
"136 1322 OFFCURVE",
"91 1303 OFFCURVE",
"43 1298 OFFCURVE",
"24 1271 OFFCURVE",
"12 1214 OFFCURVE",
"32 1178 OFFCURVE",
"59 1162 OFFCURVE",
"81 1152 OFFCURVE",
"126 1137 OFFCURVE",
"200 1089 OFFCURVE",
"233 1080 OFFCURVE",
"253 1060 OFFCURVE",
"290 1060 QCURVE SMOOTH"
);
},
{
closed = 1;
nodes = (
"418 -64 OFFCURVE",
"476 15 OFFCURVE",
"460 98 OFFCURVE",
"454 146 OFFCURVE",
"458 183 OFFCURVE",
"493 213 OFFCURVE",
"553 284 OFFCURVE",
"581 380 OFFCURVE",
"551 469 OFFCURVE",
"512 545 OFFCURVE",
"493 652 OFFCURVE",
"478 704 OFFCURVE",
"442 782 OFFCURVE",
"356 982 OFFCURVE",
"292 982 QCURVE SMOOTH",
"252 982 OFFCURVE",
"212 947 OFFCURVE",
"184 935 OFFCURVE",
"150 879 OFFCURVE",
"21 833 OFFCURVE",
"80 682 OFFCURVE",
"78 583 OFFCURVE",
"120 488 OFFCURVE",
"138 454 OFFCURVE",
"155 428 OFFCURVE",
"190 364 OFFCURVE",
"205 267 OFFCURVE",
"187 161 OFFCURVE",
"199 112 OFFCURVE",
"226 70 OFFCURVE",
"243 44 OFFCURVE",
"268 5 OFFCURVE",
"307 -46 OFFCURVE",
"342 -68 OFFCURVE",
"378 -66 QCURVE SMOOTH"
);
}
);
width = 620;
}
);
note = I;
unicode = 0049;
},
{
color = 4;
glyphname = J;
lastChange = "2019-02-16 21:16:09 +0000";
layers = (
{
layerId = "BCBE6FB0-8B5B-4728-88BC-6AD881489723";
paths = (
{
closed = 1;
nodes = (
"360 -152 OFFCURVE",
"447 -93 OFFCURVE",
"474 -25 OFFCURVE",
"479 1 OFFCURVE",
"488 110 OFFCURVE",
"533 130 OFFCURVE",
"563 139 OFFCURVE",
"612 174 OFFCURVE",
"632 261 OFFCURVE",
"589 323 OFFCURVE",
"556 359 OFFCURVE",
"548 396 OFFCURVE",
"564 440 OFFCURVE",
"578 468 OFFCURVE",
"586 496 OFFCURVE",
"593 538 OFFCURVE",
"626 721 OFFCURVE",
"609 796 OFFCURVE",
"555 862 OFFCURVE",
"531 938 OFFCURVE",
"531 998 OFFCURVE",
"484 1074 OFFCURVE",
"440 1074 QCURVE SMOOTH",
"380 1074 OFFCURVE",
"338 1032 OFFCURVE",
"336 1006 OFFCURVE",
"330 978 OFFCURVE",
"322 974 OFFCURVE",
"292 976 OFFCURVE",
"242 954 OFFCURVE",
"222 910 OFFCURVE",
"222 877 OFFCURVE",
"242 824 OFFCURVE",
"245 740 OFFCURVE",
"245 658 OFFCURVE",
"225 551 OFFCURVE",
"225 514 OFFCURVE",
"265 376 OFFCURVE",
"265 218 OFFCURVE",
"182 182 OFFCURVE",
"160 182 OFFCURVE",
"120 198 OFFCURVE",
"63 196 OFFCURVE",
"-6 138 OFFCURVE",
"-6 68 OFFCURVE",
"57 11 OFFCURVE",
"67 6 OFFCURVE",
"96 -6 OFFCURVE",
"135 -37 OFFCURVE",
"157 -73 OFFCURVE",
"248 -156 OFFCURVE",
"300 -154 QCURVE SMOOTH"
);
},
{
closed = 1;
nodes = (
"466 1110 OFFCURVE",
"550 1208 OFFCURVE",
"549 1310 OFFCURVE",
"468 1392 OFFCURVE",
"408 1392 QCURVE SMOOTH",
"362 1392 OFFCURVE",
"278 1297 OFFCURVE",
"278 1193 OFFCURVE",
"346 1110 OFFCURVE",
"412 1110 QCURVE SMOOTH"
);
}
);
width = 690;
},
{
layerId = "0BD0D975-F19E-4ACA-9A31-41147C737F0B";
paths = (
{
closed = 1;
nodes = (
"360 -152 OFFCURVE",
"447 -93 OFFCURVE",
"474 -25 OFFCURVE",
"479 1 OFFCURVE",
"488 110 OFFCURVE",
"533 130 OFFCURVE",
"563 139 OFFCURVE",
"612 174 OFFCURVE",
"632 261 OFFCURVE",
"589 323 OFFCURVE",
"556 359 OFFCURVE",
"548 396 OFFCURVE",
"564 440 OFFCURVE",
"578 468 OFFCURVE",
"586 496 OFFCURVE",
"593 538 OFFCURVE",
"626 721 OFFCURVE",
"609 796 OFFCURVE",
"555 862 OFFCURVE",
"531 938 OFFCURVE",
"531 998 OFFCURVE",
"484 1074 OFFCURVE",
"440 1074 QCURVE SMOOTH",
"380 1074 OFFCURVE",
"338 1032 OFFCURVE",
"336 1006 OFFCURVE",
"330 978 OFFCURVE",
"322 974 OFFCURVE",
"292 976 OFFCURVE",
"242 954 OFFCURVE",
"222 910 OFFCURVE",
"222 877 OFFCURVE",
"242 824 OFFCURVE",
"245 740 OFFCURVE",
"245 658 OFFCURVE",
"225 551 OFFCURVE",
"225 514 OFFCURVE",
"265 376 OFFCURVE",
"265 218 OFFCURVE",
"182 182 OFFCURVE",
"160 182 OFFCURVE",
"120 198 OFFCURVE",
"63 196 OFFCURVE",
"-6 138 OFFCURVE",
"-6 68 OFFCURVE",
"57 11 OFFCURVE",
"67 6 OFFCURVE",
"96 -6 OFFCURVE",
"135 -37 OFFCURVE",
"157 -73 OFFCURVE",
"248 -156 OFFCURVE",
"300 -154 QCURVE SMOOTH"
);
},
{
closed = 1;
nodes = (
"466 1110 OFFCURVE",
"550 1208 OFFCURVE",
"549 1310 OFFCURVE",
"468 1392 OFFCURVE",
"408 1392 QCURVE SMOOTH",
"362 1392 OFFCURVE",
"278 1297 OFFCURVE",
"278 1193 OFFCURVE",
"346 1110 OFFCURVE",
"412 1110 QCURVE SMOOTH"
);
}
);
width = 690;
}
);
note = J;
unicode = 004A;
},
{
color = 4;
glyphname = K;
lastChange = "2019-02-16 21:16:09 +0000";
layers = (
{
layerId = "BCBE6FB0-8B5B-4728-88BC-6AD881489723";
paths = (
{
closed = 1;
nodes = (
"262 -56 OFFCURVE",
"331 14 OFFCURVE",
"370 114 OFFCURVE",
"390 224 OFFCURVE",
"414 274 OFFCURVE",
"476 274 OFFCURVE",
"521 231 OFFCURVE",
"589 131 OFFCURVE",
"635 89 OFFCURVE",
"718 18 OFFCURVE",
"776 -25 OFFCURVE",
"804 -34 QCURVE SMOOTH",
"822 -41 OFFCURVE",
"853 -41 OFFCURVE",
"929 -31 OFFCURVE",
"958 -37 OFFCURVE",
"1040 -8 OFFCURVE",
"1099 -8 OFFCURVE",
"1182 42 OFFCURVE",
"1182 129 OFFCURVE",
"1138 202 OFFCURVE",
"1038 286 OFFCURVE",
"832 502 OFFCURVE",
"757 556 OFFCURVE",
"746 582 OFFCURVE",
"746 598 QCURVE SMOOTH",
"746 629 OFFCURVE",
"774 656 OFFCURVE",
"894 656 OFFCURVE",
"946 672 OFFCURVE",
"1062 713 OFFCURVE",
"1146 766 OFFCURVE",
"1190 852 OFFCURVE",
"1190 986 OFFCURVE",
"1136 1084 OFFCURVE",
"1048 1139 OFFCURVE",
"922 1147 OFFCURVE",
"818 1128 OFFCURVE",
"740 1033 OFFCURVE",
"728 914 OFFCURVE",
"710 854 OFFCURVE",
"683 808 OFFCURVE",
"607 770 OFFCURVE",
"486 722 OFFCURVE",
"438 722 OFFCURVE",
"400 822 OFFCURVE",
"376 956 OFFCURVE",
"376 1015 OFFCURVE",
"389 1043 OFFCURVE",
"427 1110 OFFCURVE",
"450 1167 OFFCURVE",
"450 1277 OFFCURVE",
"400 1390 OFFCURVE",
"311 1456 OFFCURVE",
"254 1456 QCURVE SMOOTH",
"207 1456 OFFCURVE",
"130 1396 OFFCURVE",
"84 1297 OFFCURVE",
"84 1221 OFFCURVE",
"99 1169 OFFCURVE",
"123 1101 OFFCURVE",
"138 1053 OFFCURVE",
"138 1026 OFFCURVE",
"123 996 OFFCURVE",
"118 981 OFFCURVE",
"84 901 OFFCURVE",
"84 822 OFFCURVE",
"102 751 OFFCURVE",
"102 698 OFFCURVE",
"90 647 OFFCURVE",
"68 580 OFFCURVE",
"58 537 OFFCURVE",
"58 488 OFFCURVE",
"66 441 OFFCURVE",
"90 336 OFFCURVE",
"90 292 OFFCURVE",
"80 251 OFFCURVE",
"63 192 OFFCURVE",
"52 145 OFFCURVE",
"52 75 OFFCURVE",
"92 -6 OFFCURVE",
"164 -56 OFFCURVE",
"210 -56 QCURVE SMOOTH"
);
}
);
width = 1200;
},
{
layerId = "0BD0D975-F19E-4ACA-9A31-41147C737F0B";
paths = (
{
closed = 1;
nodes = (
"262 -56 OFFCURVE",
"331 14 OFFCURVE",
"370 114 OFFCURVE",
"390 224 OFFCURVE",
"414 274 OFFCURVE",
"476 274 OFFCURVE",
"521 231 OFFCURVE",
"589 131 OFFCURVE",
"635 89 OFFCURVE",
"718 18 OFFCURVE",
"776 -25 OFFCURVE",
"804 -34 QCURVE SMOOTH",
"822 -41 OFFCURVE",
"853 -41 OFFCURVE",
"929 -31 OFFCURVE",
"958 -37 OFFCURVE",
"1040 -8 OFFCURVE",
"1099 -8 OFFCURVE",
"1182 42 OFFCURVE",
"1182 129 OFFCURVE",
"1138 202 OFFCURVE",
"1038 286 OFFCURVE",
"832 502 OFFCURVE",
"757 556 OFFCURVE",
"746 582 OFFCURVE",
"746 598 QCURVE SMOOTH",
"746 629 OFFCURVE",
"774 656 OFFCURVE",
"894 656 OFFCURVE",
"946 672 OFFCURVE",
"1062 713 OFFCURVE",
"1146 766 OFFCURVE",
"1190 852 OFFCURVE",
"1190 986 OFFCURVE",
"1136 1084 OFFCURVE",
"1048 1139 OFFCURVE",
"922 1147 OFFCURVE",
"818 1128 OFFCURVE",
"740 1033 OFFCURVE",
"728 914 OFFCURVE",
"710 854 OFFCURVE",
"683 808 OFFCURVE",
"607 770 OFFCURVE",
"486 722 OFFCURVE",
"438 722 OFFCURVE",
"400 822 OFFCURVE",
"376 956 OFFCURVE",
"376 1015 OFFCURVE",
"389 1043 OFFCURVE",
"427 1110 OFFCURVE",
"450 1167 OFFCURVE",
"450 1277 OFFCURVE",
"400 1390 OFFCURVE",
"311 1456 OFFCURVE",
"254 1456 QCURVE SMOOTH",
"207 1456 OFFCURVE",
"130 1396 OFFCURVE",
"84 1297 OFFCURVE",
"84 1221 OFFCURVE",
"99 1169 OFFCURVE",
"123 1101 OFFCURVE",
"138 1053 OFFCURVE",
"138 1026 OFFCURVE",
"123 996 OFFCURVE",
"118 981 OFFCURVE",
"84 901 OFFCURVE",
"84 822 OFFCURVE",
"102 751 OFFCURVE",
"102 698 OFFCURVE",
"90 647 OFFCURVE",
"68 580 OFFCURVE",
"58 537 OFFCURVE",
"58 488 OFFCURVE",
"66 441 OFFCURVE",
"90 336 OFFCURVE",
"90 292 OFFCURVE",
"80 251 OFFCURVE",
"63 192 OFFCURVE",
"52 145 OFFCURVE",
"52 75 OFFCURVE",
"92 -6 OFFCURVE",
"164 -56 OFFCURVE",
"210 -56 QCURVE SMOOTH"
);
}
);
width = 1200;
}
);
note = K;
unicode = 004B;
},
{
color = 4;
glyphname = L;
lastChange = "2019-02-16 21:16:09 +0000";
layers = (
{
layerId = "BCBE6FB0-8B5B-4728-88BC-6AD881489723";
paths = (
{
closed = 1;
nodes = (
"214 0 OFFCURVE",
"252 12 OFFCURVE",
"329 128 OFFCURVE",
"365 178 OFFCURVE",
"384 236 OFFCURVE",
"379 295 OFFCURVE",
"386 348 OFFCURVE",
"404 402 OFFCURVE",
"436 471 OFFCURVE",
"449 557 OFFCURVE",
"430 641 OFFCURVE",
"399 758 OFFCURVE",
"402 811 OFFCURVE",
"437 860 OFFCURVE",
"488 933 OFFCURVE",
"499 1077 OFFCURVE",
"442 1194 OFFCURVE",
"419 1239 OFFCURVE",
"419 1315 OFFCURVE",
"432 1363 OFFCURVE",
"454 1400 OFFCURVE",
"472 1463 OFFCURVE",
"479 1528 OFFCURVE",
"432 1615 OFFCURVE",
"394 1634 QCURVE",
"355 1651 OFFCURVE",
"265 1629 OFFCURVE",
"205 1534 OFFCURVE",
"180 1434 OFFCURVE",
"101 1333 OFFCURVE",
"83 1232 OFFCURVE",
"98 1158 OFFCURVE",
"108 1111 OFFCURVE",
"108 1012 OFFCURVE",
"118 918 OFFCURVE",
"150 844 OFFCURVE",
"144 808 OFFCURVE",
"92 734 OFFCURVE",
"42 648 OFFCURVE",
"34 486 OFFCURVE",
"83 395 OFFCURVE",
"114 364 OFFCURVE",
"134 317 OFFCURVE",
"131 216 OFFCURVE",
"101 153 OFFCURVE",
"132 0 OFFCURVE",
"186 0 QCURVE SMOOTH"
);
}
);
width = 530;
},
{
layerId = "0BD0D975-F19E-4ACA-9A31-41147C737F0B";
paths = (
{
closed = 1;
nodes = (
"214 0 OFFCURVE",
"252 12 OFFCURVE",
"329 128 OFFCURVE",
"365 178 OFFCURVE",
"384 236 OFFCURVE",
"379 295 OFFCURVE",
"386 348 OFFCURVE",
"404 402 OFFCURVE",
"436 471 OFFCURVE",
"449 557 OFFCURVE",
"430 641 OFFCURVE",
"399 758 OFFCURVE",
"402 811 OFFCURVE",
"437 860 OFFCURVE",
"488 933 OFFCURVE",
"499 1077 OFFCURVE",
"442 1194 OFFCURVE",
"419 1239 OFFCURVE",
"419 1315 OFFCURVE",
"432 1363 OFFCURVE",
"454 1400 OFFCURVE",
"472 1463 OFFCURVE",
"479 1528 OFFCURVE",
"432 1615 OFFCURVE",
"394 1634 QCURVE",
"355 1651 OFFCURVE",
"265 1629 OFFCURVE",
"205 1534 OFFCURVE",
"180 1434 OFFCURVE",
"101 1333 OFFCURVE",
"83 1232 OFFCURVE",
"98 1158 OFFCURVE",
"108 1111 OFFCURVE",
"108 1012 OFFCURVE",
"118 918 OFFCURVE",
"150 844 OFFCURVE",
"144 808 OFFCURVE",
"92 734 OFFCURVE",
"42 648 OFFCURVE",
"34 486 OFFCURVE",
"83 395 OFFCURVE",
"114 364 OFFCURVE",
"134 317 OFFCURVE",
"131 216 OFFCURVE",
"101 153 OFFCURVE",
"132 0 OFFCURVE",
"186 0 QCURVE SMOOTH"
);
}
);
width = 530;
}
);
note = L;
unicode = 004C;
},
{
color = 4;
glyphname = M;
lastChange = "2019-02-16 21:16:09 +0000";
layers = (
{
layerId = "BCBE6FB0-8B5B-4728-88BC-6AD881489723";
paths = (
{
closed = 1;
nodes = (
"226 -8 OFFCURVE",
"258 4 OFFCURVE",
"318 84 OFFCURVE",
"429 244 OFFCURVE",
"477 329 OFFCURVE",
"516 376 OFFCURVE",
"556 436 OFFCURVE",
"580 479 OFFCURVE",
"616 482 OFFCURVE",
"657 432 OFFCURVE",
"688 386 OFFCURVE",
"717 329 OFFCURVE",
"739 239 OFFCURVE",
"776 210 OFFCURVE",
"806 210 QCURVE",
"828 202 OFFCURVE",
"872 224 OFFCURVE",
"912 307 OFFCURVE",
"938 342 OFFCURVE",
"961 386 OFFCURVE",
"964 415 OFFCURVE",
"1015 524 OFFCURVE",
"1028 528 OFFCURVE",
"1077 508 OFFCURVE",
"1132 468 OFFCURVE",
"1132 454 OFFCURVE",
"1038 354 OFFCURVE",
"1034 274 OFFCURVE",
"1051 202 OFFCURVE",
"1073 167 OFFCURVE",
"1076 126 OFFCURVE",
"1083 -6 OFFCURVE",
"1137 -50 OFFCURVE",
"1170 -50 QCURVE",
"1206 -50 OFFCURVE",
"1254 -20 OFFCURVE",
"1272 22 OFFCURVE",
"1272 88 OFFCURVE",
"1291 140 OFFCURVE",
"1322 196 OFFCURVE",
"1336 226 OFFCURVE",
"1343 292 OFFCURVE",
"1302 385 OFFCURVE",
"1243 422 OFFCURVE",
"1212 444 OFFCURVE",
"1180 456 OFFCURVE",
"1179 474 OFFCURVE",
"1207 492 OFFCURVE",
"1236 514 OFFCURVE",
"1274 567 OFFCURVE",
"1270 658 OFFCURVE",
"1185 743 OFFCURVE",
"1162 797 OFFCURVE",
"1095 903 OFFCURVE",
"998 874 OFFCURVE",
"977 862 OFFCURVE",
"948 840 OFFCURVE",
"900 839 OFFCURVE",
"853 873 OFFCURVE",
"825 882 OFFCURVE",
"722 894 OFFCURVE",
"668 941 OFFCURVE",
"619 956 OFFCURVE",
"560 956 OFFCURVE",
"508 966 OFFCURVE",
"382 998 OFFCURVE",
"300 998 OFFCURVE",
"226 1005 OFFCURVE",
"184 1018 QCURVE SMOOTH",
"154 1029 OFFCURVE",
"96 1000 OFFCURVE",
"69 939 OFFCURVE",
"80 894 OFFCURVE",
"96 846 OFFCURVE",
"100 798 OFFCURVE",
"104 700 OFFCURVE",
"104 636 OFFCURVE",
"90 520 OFFCURVE",
"90 420 OFFCURVE",
"119 342 OFFCURVE",
"119 284 OFFCURVE",
"73 146 OFFCURVE",
"70 113 OFFCURVE",
"78 44 OFFCURVE",
"137 -8 OFFCURVE",
"174 -8 QCURVE SMOOTH"
);
}
);
width = 1352;
},
{
layerId = "0BD0D975-F19E-4ACA-9A31-41147C737F0B";
paths = (
{
closed = 1;
nodes = (
"226 -8 OFFCURVE",
"258 4 OFFCURVE",
"318 84 OFFCURVE",
"429 244 OFFCURVE",
"477 329 OFFCURVE",
"516 376 OFFCURVE",
"556 436 OFFCURVE",
"580 479 OFFCURVE",
"616 482 OFFCURVE",
"657 432 OFFCURVE",
"688 386 OFFCURVE",
"717 329 OFFCURVE",
"739 239 OFFCURVE",
"776 210 OFFCURVE",
"806 210 QCURVE",
"828 202 OFFCURVE",
"872 224 OFFCURVE",
"912 307 OFFCURVE",
"938 342 OFFCURVE",
"961 386 OFFCURVE",
"964 415 OFFCURVE",
"1015 524 OFFCURVE",
"1028 528 OFFCURVE",
"1077 508 OFFCURVE",
"1132 468 OFFCURVE",
"1132 454 OFFCURVE",
"1038 354 OFFCURVE",
"1034 274 OFFCURVE",
"1051 202 OFFCURVE",
"1073 167 OFFCURVE",
"1076 126 OFFCURVE",
"1083 -6 OFFCURVE",
"1137 -50 OFFCURVE",
"1170 -50 QCURVE",
"1206 -50 OFFCURVE",
"1254 -20 OFFCURVE",
"1272 22 OFFCURVE",
"1272 88 OFFCURVE",
"1291 140 OFFCURVE",
"1322 196 OFFCURVE",
"1336 226 OFFCURVE",
"1343 292 OFFCURVE",
"1302 385 OFFCURVE",
"1243 422 OFFCURVE",
"1212 444 OFFCURVE",
"1180 456 OFFCURVE",
"1179 474 OFFCURVE",
"1207 492 OFFCURVE",
"1236 514 OFFCURVE",
"1274 567 OFFCURVE",
"1270 658 OFFCURVE",
"1185 743 OFFCURVE",
"1162 797 OFFCURVE",
"1095 903 OFFCURVE",
"998 874 OFFCURVE",
"977 862 OFFCURVE",
"948 840 OFFCURVE",
"900 839 OFFCURVE",
"853 873 OFFCURVE",
"825 882 OFFCURVE",
"722 894 OFFCURVE",
"668 941 OFFCURVE",
"619 956 OFFCURVE",
"560 956 OFFCURVE",
"508 966 OFFCURVE",
"382 998 OFFCURVE",
"300 998 OFFCURVE",
"226 1005 OFFCURVE",
"184 1018 QCURVE SMOOTH",
"154 1029 OFFCURVE",
"96 1000 OFFCURVE",
"69 939 OFFCURVE",
"80 894 OFFCURVE",
"96 846 OFFCURVE",
"100 798 OFFCURVE",
"104 700 OFFCURVE",
"104 636 OFFCURVE",
"90 520 OFFCURVE",
"90 420 OFFCURVE",
"119 342 OFFCURVE",
"119 284 OFFCURVE",
"73 146 OFFCURVE",
"70 113 OFFCURVE",
"78 44 OFFCURVE",
"137 -8 OFFCURVE",
"174 -8 QCURVE SMOOTH"
);
}
);
width = 1352;
}
);
note = M;
unicode = 004D;
},
{
color = 4;
glyphname = N;
lastChange = "2019-02-16 21:16:09 +0000";
layers = (
{
layerId = "BCBE6FB0-8B5B-4728-88BC-6AD881489723";
paths = (
{
closed = 1;
nodes = (
"349 -92 OFFCURVE",
"402 -38 OFFCURVE",
"422 6 OFFCURVE",
"426 66 OFFCURVE",
"431 87 OFFCURVE",
"437 125 OFFCURVE",
"455 195 OFFCURVE",
"476 256 OFFCURVE",
"524 344 OFFCURVE",
"586 458 OFFCURVE",
"599 466 OFFCURVE",
"615 452 OFFCURVE",
"693 364 OFFCURVE",
"784 232 OFFCURVE",
"826 147 OFFCURVE",
"830 117 OFFCURVE",
"822 66 OFFCURVE",
"818 28 OFFCURVE",
"827 -32 OFFCURVE",
"895 -80 OFFCURVE",
"934 -80 QCURVE SMOOTH",
"975 -80 OFFCURVE",
"1028 -23 OFFCURVE",
"1028 37 OFFCURVE",
"1009 83 OFFCURVE",
"996 127 OFFCURVE",
"996 160 OFFCURVE",
"1049 205 OFFCURVE",
"1062 221 OFFCURVE",
"1062 248 OFFCURVE",
"1040 282 OFFCURVE",
"1031 300 OFFCURVE",
"1035 502 OFFCURVE",
"1018 591 OFFCURVE",
"966 698 OFFCURVE",
"910 827 OFFCURVE",
"838 876 OFFCURVE",
"740 876 OFFCURVE",
"711 887 OFFCURVE",
"663 935 OFFCURVE",
"587 942 OFFCURVE",
"506 893 OFFCURVE",
"397 923 OFFCURVE",
"322 927 OFFCURVE",
"226 935 OFFCURVE",
"215 957 OFFCURVE",
"204 974 OFFCURVE",
"156 1032 OFFCURVE",
"126 1032 QCURVE SMOOTH",
"94 1032 OFFCURVE",
"60 992 OFFCURVE",
"48 958 OFFCURVE",
"70 904 OFFCURVE",
"99 874 OFFCURVE",
"132 870 OFFCURVE",
"154 820 OFFCURVE",
"146 728 OFFCURVE",
"146 673 OFFCURVE",
"128 599 OFFCURVE",
"78 468 OFFCURVE",
"82 402 OFFCURVE",
"132 255 OFFCURVE",
"132 189 OFFCURVE",
"143 125 OFFCURVE",
"157 65 OFFCURVE",
"165 32 OFFCURVE",
"168 11 OFFCURVE",
"202 -88 OFFCURVE",
"274 -90 QCURVE SMOOTH"
);
}
);
width = 1086;
},
{
layerId = "0BD0D975-F19E-4ACA-9A31-41147C737F0B";
paths = (
{
closed = 1;
nodes = (
"349 -92 OFFCURVE",
"402 -38 OFFCURVE",
"422 6 OFFCURVE",
"426 66 OFFCURVE",
"431 87 OFFCURVE",
"437 125 OFFCURVE",
"455 195 OFFCURVE",
"476 256 OFFCURVE",
"524 344 OFFCURVE",
"586 458 OFFCURVE",
"599 466 OFFCURVE",
"615 452 OFFCURVE",
"693 364 OFFCURVE",
"784 232 OFFCURVE",
"826 147 OFFCURVE",
"830 117 OFFCURVE",
"822 66 OFFCURVE",
"818 28 OFFCURVE",
"827 -32 OFFCURVE",
"895 -80 OFFCURVE",
"934 -80 QCURVE SMOOTH",
"975 -80 OFFCURVE",
"1028 -23 OFFCURVE",
"1028 37 OFFCURVE",
"1009 83 OFFCURVE",
"996 127 OFFCURVE",
"996 160 OFFCURVE",
"1049 205 OFFCURVE",
"1062 221 OFFCURVE",
"1062 248 OFFCURVE",
"1040 282 OFFCURVE",
"1031 300 OFFCURVE",
"1035 502 OFFCURVE",
"1018 591 OFFCURVE",
"966 698 OFFCURVE",
"910 827 OFFCURVE",
"838 876 OFFCURVE",
"740 876 OFFCURVE",
"711 887 OFFCURVE",
"663 935 OFFCURVE",
"587 942 OFFCURVE",
"506 893 OFFCURVE",
"397 923 OFFCURVE",
"322 927 OFFCURVE",
"226 935 OFFCURVE",
"215 957 OFFCURVE",
"204 974 OFFCURVE",
"156 1032 OFFCURVE",
"126 1032 QCURVE SMOOTH",
"94 1032 OFFCURVE",
"60 992 OFFCURVE",
"48 958 OFFCURVE",
"70 904 OFFCURVE",
"99 874 OFFCURVE",
"132 870 OFFCURVE",
"154 820 OFFCURVE",
"146 728 OFFCURVE",
"146 673 OFFCURVE",
"128 599 OFFCURVE",
"78 468 OFFCURVE",
"82 402 OFFCURVE",
"132 255 OFFCURVE",
"132 189 OFFCURVE",
"143 125 OFFCURVE",
"157 65 OFFCURVE",
"165 32 OFFCURVE",
"168 11 OFFCURVE",
"202 -88 OFFCURVE",
"274 -90 QCURVE SMOOTH"
);
}
);
width = 1086;
}
);
note = N;
unicode = 004E;
},
{
color = 4;
glyphname = O;
lastChange = "2019-02-16 21:16:09 +0000";
layers = (
{
layerId = "BCBE6FB0-8B5B-4728-88BC-6AD881489723";
paths = (
{
closed = 1;
nodes = (
"527 -67 OFFCURVE",
"590 -50 OFFCURVE",
"619 -34 OFFCURVE",
"659 -11 OFFCURVE",
"733 18 OFFCURVE",
"776 18 OFFCURVE",
"801 28 OFFCURVE",
"879 47 OFFCURVE",
"944 114 OFFCURVE",
"944 214 OFFCURVE",
"987 268 OFFCURVE",
"1083 296 OFFCURVE",
"1138 347 OFFCURVE",
"1160 464 OFFCURVE",
"1161 588 OFFCURVE",
"1112 668 OFFCURVE",
"1098 698 OFFCURVE",
"1095 738 OFFCURVE",
"1100 786 OFFCURVE",
"1095 823 OFFCURVE",
"1086 856 OFFCURVE",
"1068 946 OFFCURVE",
"978 1025 OFFCURVE",
"862 1040 OFFCURVE",
"789 1024 OFFCURVE",
"692 990 OFFCURVE",
"616 996 OFFCURVE",
"562 1024 OFFCURVE",
"494 1056 OFFCURVE",
"404 1058 QCURVE SMOOTH",
"326 1060 OFFCURVE",
"246 1022 OFFCURVE",
"209 991 OFFCURVE",
"176 927 OFFCURVE",
"171 918 OFFCURVE",
"145 873 OFFCURVE",
"108 819 OFFCURVE",
"89 790 OFFCURVE",
"-22 649 OFFCURVE",
"94 420 OFFCURVE",
"170 269 OFFCURVE",
"176 254 OFFCURVE",
"196 210 OFFCURVE",
"208 179 OFFCURVE",
"217 124 OFFCURVE",
"226 90 OFFCURVE",
"280 -2 OFFCURVE",
"408 -70 OFFCURVE",
"480 -68 QCURVE SMOOTH"
);
},
{
closed = 1;
nodes = (
"702 355 OFFCURVE",
"619 408 OFFCURVE",
"551 483 OFFCURVE",
"591 591 OFFCURVE",
"635 618 OFFCURVE",
"686 624 QCURVE SMOOTH",
"722 628 OFFCURVE",
"784 566 OFFCURVE",
"820 475 OFFCURVE",
"820 389 OFFCURVE",
"810 365 OFFCURVE",
"752 358 QCURVE"
);
}
);
width = 1204;
},
{
layerId = "0BD0D975-F19E-4ACA-9A31-41147C737F0B";
paths = (
{
closed = 1;
nodes = (
"527 -67 OFFCURVE",
"590 -50 OFFCURVE",
"619 -34 OFFCURVE",
"659 -11 OFFCURVE",
"733 18 OFFCURVE",
"776 18 OFFCURVE",
"801 28 OFFCURVE",
"879 47 OFFCURVE",
"944 114 OFFCURVE",
"944 214 OFFCURVE",
"987 268 OFFCURVE",
"1083 296 OFFCURVE",
"1138 347 OFFCURVE",
"1160 464 OFFCURVE",
"1161 588 OFFCURVE",
"1112 668 OFFCURVE",
"1098 698 OFFCURVE",
"1095 738 OFFCURVE",
"1100 786 OFFCURVE",
"1095 823 OFFCURVE",
"1086 856 OFFCURVE",
"1068 946 OFFCURVE",
"978 1025 OFFCURVE",
"862 1040 OFFCURVE",
"789 1024 OFFCURVE",
"692 990 OFFCURVE",
"616 996 OFFCURVE",
"562 1024 OFFCURVE",
"494 1056 OFFCURVE",
"404 1058 QCURVE SMOOTH",
"326 1060 OFFCURVE",
"246 1022 OFFCURVE",
"209 991 OFFCURVE",
"176 927 OFFCURVE",
"171 918 OFFCURVE",
"145 873 OFFCURVE",
"108 819 OFFCURVE",
"89 790 OFFCURVE",
"-22 649 OFFCURVE",
"94 420 OFFCURVE",
"170 269 OFFCURVE",
"176 254 OFFCURVE",
"196 210 OFFCURVE",
"208 179 OFFCURVE",
"217 124 OFFCURVE",
"226 90 OFFCURVE",
"280 -2 OFFCURVE",
"408 -70 OFFCURVE",
"480 -68 QCURVE SMOOTH"
);
},
{
closed = 1;
nodes = (
"702 355 OFFCURVE",
"619 408 OFFCURVE",
"551 483 OFFCURVE",
"591 591 OFFCURVE",
"635 618 OFFCURVE",
"686 624 QCURVE SMOOTH",
"722 628 OFFCURVE",
"784 566 OFFCURVE",
"820 475 OFFCURVE",
"820 389 OFFCURVE",
"810 365 OFFCURVE",
"752 358 QCURVE"
);
}
);
width = 1204;
}
);
note = O;
unicode = 004F;
},
{
color = 4;
glyphname = P;
lastChange = "2019-02-16 21:16:09 +0000";
layers = (
{
layerId = "BCBE6FB0-8B5B-4728-88BC-6AD881489723";
paths = (
{
closed = 1;
nodes = (
"324 -494 OFFCURVE",
"374 -443 OFFCURVE",
"382 -394 OFFCURVE",
"370 -352 OFFCURVE",
"362 -327 OFFCURVE",
"344 -300 OFFCURVE",
"349 -285 OFFCURVE",
"352 -280 OFFCURVE",
"357 -272 OFFCURVE",
"367 -260 OFFCURVE",
"417 -223 OFFCURVE",
"472 -118 OFFCURVE",
"488 -18 OFFCURVE",
"507 16 OFFCURVE",
"547 48 OFFCURVE",
"597 56 OFFCURVE",
"634 60 OFFCURVE",
"695 68 OFFCURVE",
"782 114 OFFCURVE",
"834 187 OFFCURVE",
"891 237 OFFCURVE",
"976 302 OFFCURVE",
"1021 380 OFFCURVE",
"1044 496 OFFCURVE",
"1099 551 OFFCURVE",
"1112 578 OFFCURVE",
"1128 617 OFFCURVE",
"1116 688 OFFCURVE",
"1080 724 OFFCURVE",
"1058 733 OFFCURVE",
"996 744 OFFCURVE",
"967 747 OFFCURVE",
"947 754 OFFCURVE",
"932 769 OFFCURVE",
"928 784 OFFCURVE",
"924 800 OFFCURVE",
"917 831 OFFCURVE",
"912 853 OFFCURVE",
"898 900 OFFCURVE",
"866 986 OFFCURVE",
"773 1053 OFFCURVE",
"700 1062 QCURVE",
"667 1062 OFFCURVE",
"596 1045 OFFCURVE",
"514 1006 OFFCURVE",
"460 988 OFFCURVE",
"387 979 OFFCURVE",
"321 937 OFFCURVE",
"269 877 OFFCURVE",
"236 847 OFFCURVE",
"167 816 OFFCURVE",
"118 739 OFFCURVE",
"118 659 OFFCURVE",
"99 612 OFFCURVE",
"35 563 OFFCURVE",
"27 483 OFFCURVE",
"83 410 OFFCURVE",
"91 364 OFFCURVE",
"59 277 OFFCURVE",
"63 161 OFFCURVE",
"97 59 OFFCURVE",
"105 0 OFFCURVE",
"106 -131 OFFCURVE",
"141 -210 OFFCURVE",
"177 -245 OFFCURVE",
"197 -255 OFFCURVE",
"220 -278 OFFCURVE",
"228 -309 OFFCURVE",
"192 -364 OFFCURVE",
"200 -441 OFFCURVE",
"257 -494 OFFCURVE",
"288 -494 QCURVE SMOOTH"
);
},
{
closed = 1;
nodes = (
"443 447 OFFCURVE",
"364 498 OFFCURVE",
"274 518 OFFCURVE",
"270 542 OFFCURVE",
"419 657 OFFCURVE",
"447 660 OFFCURVE",
"468 660 QCURVE",
"500 660 OFFCURVE",
"576 604 OFFCURVE",
"612 552 OFFCURVE",
"612 510 OFFCURVE",
"532 449 OFFCURVE",
"488 448 QCURVE SMOOTH"
);
}
);
width = 1152;
},
{
layerId = "0BD0D975-F19E-4ACA-9A31-41147C737F0B";
paths = (
{
closed = 1;
nodes = (
"324 -494 OFFCURVE",
"374 -443 OFFCURVE",
"382 -394 OFFCURVE",
"370 -352 OFFCURVE",
"362 -327 OFFCURVE",
"344 -300 OFFCURVE",
"349 -285 OFFCURVE",
"352 -280 OFFCURVE",
"357 -272 OFFCURVE",
"367 -260 OFFCURVE",
"417 -223 OFFCURVE",
"472 -118 OFFCURVE",
"488 -18 OFFCURVE",
"507 16 OFFCURVE",
"547 48 OFFCURVE",
"597 56 OFFCURVE",
"634 60 OFFCURVE",
"695 68 OFFCURVE",
"782 114 OFFCURVE",
"834 187 OFFCURVE",
"891 237 OFFCURVE",
"976 302 OFFCURVE",
"1021 380 OFFCURVE",
"1044 496 OFFCURVE",
"1099 551 OFFCURVE",
"1112 578 OFFCURVE",
"1128 617 OFFCURVE",
"1116 688 OFFCURVE",
"1080 724 OFFCURVE",
"1058 733 OFFCURVE",
"996 744 OFFCURVE",
"967 747 OFFCURVE",
"947 754 OFFCURVE",
"932 769 OFFCURVE",
"928 784 OFFCURVE",
"924 800 OFFCURVE",
"917 831 OFFCURVE",
"912 853 OFFCURVE",
"898 900 OFFCURVE",
"866 986 OFFCURVE",
"773 1053 OFFCURVE",
"700 1062 QCURVE",
"667 1062 OFFCURVE",
"596 1045 OFFCURVE",
"514 1006 OFFCURVE",
"460 988 OFFCURVE",
"387 979 OFFCURVE",
"321 937 OFFCURVE",
"269 877 OFFCURVE",
"236 847 OFFCURVE",
"167 816 OFFCURVE",
"118 739 OFFCURVE",
"118 659 OFFCURVE",
"99 612 OFFCURVE",
"35 563 OFFCURVE",
"27 483 OFFCURVE",
"83 410 OFFCURVE",
"91 364 OFFCURVE",
"59 277 OFFCURVE",
"63 161 OFFCURVE",
"97 59 OFFCURVE",
"105 0 OFFCURVE",
"106 -131 OFFCURVE",
"141 -210 OFFCURVE",
"177 -245 OFFCURVE",
"197 -255 OFFCURVE",
"220 -278 OFFCURVE",
"228 -309 OFFCURVE",
"192 -364 OFFCURVE",
"200 -441 OFFCURVE",
"257 -494 OFFCURVE",
"288 -494 QCURVE SMOOTH"
);
},
{
closed = 1;
nodes = (
"443 447 OFFCURVE",
"364 498 OFFCURVE",
"274 518 OFFCURVE",
"270 542 OFFCURVE",
"419 657 OFFCURVE",
"447 660 OFFCURVE",
"468 660 QCURVE",
"500 660 OFFCURVE",
"576 604 OFFCURVE",
"612 552 OFFCURVE",
"612 510 OFFCURVE",
"532 449 OFFCURVE",
"488 448 QCURVE SMOOTH"
);
}
);
width = 1152;
}
);
note = P;
unicode = 0050;
},
{
color = 4;
glyphname = Q;
lastChange = "2019-02-16 21:16:09 +0000";
layers = (
{
layerId = "BCBE6FB0-8B5B-4728-88BC-6AD881489723";
paths = (
{
closed = 1;
nodes = (
"894 -432 OFFCURVE",
"958 -347 OFFCURVE",
"966 -281 OFFCURVE",
"966 -237 OFFCURVE",
"958 -200 OFFCURVE",
"954 -144 OFFCURVE",
"958 -96 OFFCURVE",
"976 -31 OFFCURVE",
"976 35 OFFCURVE",
"968 116 OFFCURVE",
"971 170 OFFCURVE",
"997 332 OFFCURVE",
"941 476 OFFCURVE",
"972 514 OFFCURVE",
"979 532 OFFCURVE",
"984 542 OFFCURVE",
"996 579 OFFCURVE",
"992 627 OFFCURVE",
"976 652 OFFCURVE",
"958 664 OFFCURVE",
"934 685 OFFCURVE",
"916 720 OFFCURVE",
"908 794 OFFCURVE",
"871 850 OFFCURVE",
"811 876 OFFCURVE",
"781 897 OFFCURVE",
"748 959 OFFCURVE",
"682 998 OFFCURVE",
"628 1002 OFFCURVE",
"605 1010 OFFCURVE",
"562 1026 OFFCURVE",
"539 1037 OFFCURVE",
"514 1046 OFFCURVE",
"520 1058 OFFCURVE",
"490 1056 OFFCURVE",
"442 1058 QCURVE",
"376 1056 OFFCURVE",
"292 970 OFFCURVE",
"250 868 OFFCURVE",
"228 830 OFFCURVE",
"205 814 OFFCURVE",
"164 798 OFFCURVE",
"104 764 OFFCURVE",
"54 662 OFFCURVE",
"54 578 OFFCURVE",
"64 496 OFFCURVE",
"78 341 OFFCURVE",
"244 249 OFFCURVE",
"336 126 OFFCURVE",
"446 76 OFFCURVE",
"526 94 OFFCURVE",
"601 94 OFFCURVE",
"625 35 OFFCURVE",
"631 20 OFFCURVE",
"636 9 OFFCURVE",
"644 -8 OFFCURVE",
"648 -30 OFFCURVE",
"654 -71 OFFCURVE",
"676 -123 OFFCURVE",
"687 -184 OFFCURVE",
"680 -261 OFFCURVE",
"689 -302 OFFCURVE",
"752 -425 OFFCURVE",
"854 -430 QCURVE SMOOTH"
);
},
{
closed = 1;
nodes = (
"607 503 OFFCURVE",
"560 513 OFFCURVE",
"521 551 OFFCURVE",
"521 593 OFFCURVE",
"568 640 OFFCURVE",
"612 677 OFFCURVE",
"640 690 QCURVE",
"648 698 OFFCURVE",
"675 698 OFFCURVE",
"733 651 OFFCURVE",
"761 617 OFFCURVE",
"770 586 OFFCURVE",
"758 568 OFFCURVE",
"724 552 OFFCURVE",
"694 535 OFFCURVE",
"653 517 OFFCURVE",
"638 510 QCURVE"
);
}
);
width = 1076;
},
{
layerId = "0BD0D975-F19E-4ACA-9A31-41147C737F0B";
paths = (
{
closed = 1;
nodes = (
"894 -432 OFFCURVE",
"958 -347 OFFCURVE",
"966 -281 OFFCURVE",
"966 -237 OFFCURVE",
"958 -200 OFFCURVE",
"954 -144 OFFCURVE",
"958 -96 OFFCURVE",
"976 -31 OFFCURVE",
"976 35 OFFCURVE",
"968 116 OFFCURVE",
"971 170 OFFCURVE",
"997 332 OFFCURVE",
"941 476 OFFCURVE",
"972 514 OFFCURVE",
"979 532 OFFCURVE",
"984 542 OFFCURVE",
"996 579 OFFCURVE",
"992 627 OFFCURVE",
"976 652 OFFCURVE",
"958 664 OFFCURVE",
"934 685 OFFCURVE",
"916 720 OFFCURVE",
"908 794 OFFCURVE",
"871 850 OFFCURVE",
"811 876 OFFCURVE",
"781 897 OFFCURVE",
"748 959 OFFCURVE",
"682 998 OFFCURVE",
"628 1002 OFFCURVE",
"605 1010 OFFCURVE",
"562 1026 OFFCURVE",
"539 1037 OFFCURVE",
"514 1046 OFFCURVE",
"520 1058 OFFCURVE",
"490 1056 OFFCURVE",
"442 1058 QCURVE",
"376 1056 OFFCURVE",
"292 970 OFFCURVE",
"250 868 OFFCURVE",
"228 830 OFFCURVE",
"205 814 OFFCURVE",
"164 798 OFFCURVE",
"104 764 OFFCURVE",
"54 662 OFFCURVE",
"54 578 OFFCURVE",
"64 496 OFFCURVE",
"78 341 OFFCURVE",
"244 249 OFFCURVE",
"336 126 OFFCURVE",
"446 76 OFFCURVE",
"526 94 OFFCURVE",
"601 94 OFFCURVE",
"625 35 OFFCURVE",
"631 20 OFFCURVE",
"636 9 OFFCURVE",
"644 -8 OFFCURVE",
"648 -30 OFFCURVE",
"654 -71 OFFCURVE",
"676 -123 OFFCURVE",
"687 -184 OFFCURVE",
"680 -261 OFFCURVE",
"689 -302 OFFCURVE",
"752 -425 OFFCURVE",
"854 -430 QCURVE SMOOTH"
);
},
{
closed = 1;
nodes = (
"607 503 OFFCURVE",
"560 513 OFFCURVE",
"521 551 OFFCURVE",
"521 593 OFFCURVE",
"568 640 OFFCURVE",
"612 677 OFFCURVE",
"640 690 QCURVE",
"648 698 OFFCURVE",
"675 698 OFFCURVE",
"733 651 OFFCURVE",
"761 617 OFFCURVE",
"770 586 OFFCURVE",
"758 568 OFFCURVE",
"724 552 OFFCURVE",
"694 535 OFFCURVE",
"653 517 OFFCURVE",
"638 510 QCURVE"
);
}
);
width = 1076;
}
);
note = Q;
unicode = 0051;
},
{
color = 4;
glyphname = R;
lastChange = "2019-02-16 21:16:09 +0000";
layers = (
{
layerId = "BCBE6FB0-8B5B-4728-88BC-6AD881489723";
paths = (
{
closed = 1;
nodes = (
"84 1076 OFFCURVE",
"47 1030 OFFCURVE",
"54 971 OFFCURVE",
"106 928 OFFCURVE",
"138 928 QCURVE SMOOTH",
"170 928 OFFCURVE",
"207 970 OFFCURVE",
"200 1033 OFFCURVE",
"153 1084 OFFCURVE",
"116 1084 QCURVE"
);
},
{
closed = 1;
nodes = (
"370 -56 OFFCURVE",
"384 -40 OFFCURVE",
"410 -22 OFFCURVE",
"439 39 OFFCURVE",
"448 65 OFFCURVE",
"448 110 OFFCURVE",
"458 234 OFFCURVE",
"458 286 OFFCURVE",
"462 313 OFFCURVE",
"527 416 OFFCURVE",
"542 585 OFFCURVE",
"569 633 OFFCURVE",
"610 666 OFFCURVE",
"640 674 OFFCURVE",
"656 660 QCURVE",
"703 631 OFFCURVE",
"763 566 OFFCURVE",
"770 501 OFFCURVE",
"785 457 OFFCURVE",
"825 409 OFFCURVE",
"888 386 OFFCURVE",
"924 400 QCURVE",
"1003 415 OFFCURVE",
"1018 514 OFFCURVE",
"1015 541 OFFCURVE",
"1001 583 OFFCURVE",
"1008 628 OFFCURVE",
"1026 681 OFFCURVE",
"1038 722 OFFCURVE",
"1049 793 OFFCURVE",
"1018 892 OFFCURVE",
"945 960 OFFCURVE",
"777 970 OFFCURVE",
"728 973 OFFCURVE",
"708 980 QCURVE",
"640 1012 OFFCURVE",
"553 955 OFFCURVE",
"500 955 OFFCURVE",
"442 977 OFFCURVE",
"386 980 OFFCURVE",
"230 966 OFFCURVE",
"180 830 OFFCURVE",
"172 795 OFFCURVE",
"168 772 OFFCURVE",
"168 722 OFFCURVE",
"150 659 OFFCURVE",
"81 549 OFFCURVE",
"85 396 OFFCURVE",
"155 301 OFFCURVE",
"165 263 OFFCURVE",
"187 74 OFFCURVE",
"198 40 OFFCURVE",
"258 -54 OFFCURVE",
"320 -56 QCURVE"
);
}
);
width = 1082;
},
{
layerId = "0BD0D975-F19E-4ACA-9A31-41147C737F0B";
paths = (
{
closed = 1;
nodes = (
"84 1076 OFFCURVE",
"47 1030 OFFCURVE",
"54 971 OFFCURVE",
"106 928 OFFCURVE",
"138 928 QCURVE SMOOTH",
"170 928 OFFCURVE",
"207 970 OFFCURVE",
"200 1033 OFFCURVE",
"153 1084 OFFCURVE",
"116 1084 QCURVE"
);
},
{
closed = 1;
nodes = (
"370 -56 OFFCURVE",
"384 -40 OFFCURVE",
"410 -22 OFFCURVE",
"439 39 OFFCURVE",
"448 65 OFFCURVE",
"448 110 OFFCURVE",
"458 234 OFFCURVE",
"458 286 OFFCURVE",
"462 313 OFFCURVE",
"527 416 OFFCURVE",
"542 585 OFFCURVE",
"569 633 OFFCURVE",
"610 666 OFFCURVE",
"640 674 OFFCURVE",
"656 660 QCURVE",
"703 631 OFFCURVE",
"763 566 OFFCURVE",
"770 501 OFFCURVE",
"785 457 OFFCURVE",
"825 409 OFFCURVE",
"888 386 OFFCURVE",
"924 400 QCURVE",
"1003 415 OFFCURVE",
"1018 514 OFFCURVE",
"1015 541 OFFCURVE",
"1001 583 OFFCURVE",
"1008 628 OFFCURVE",
"1026 681 OFFCURVE",
"1038 722 OFFCURVE",
"1049 793 OFFCURVE",
"1018 892 OFFCURVE",
"945 960 OFFCURVE",
"777 970 OFFCURVE",
"728 973 OFFCURVE",
"708 980 QCURVE",
"640 1012 OFFCURVE",
"553 955 OFFCURVE",
"500 955 OFFCURVE",
"442 977 OFFCURVE",
"386 980 OFFCURVE",
"230 966 OFFCURVE",
"180 830 OFFCURVE",
"172 795 OFFCURVE",
"168 772 OFFCURVE",
"168 722 OFFCURVE",
"150 659 OFFCURVE",
"81 549 OFFCURVE",
"85 396 OFFCURVE",
"155 301 OFFCURVE",
"165 263 OFFCURVE",
"187 74 OFFCURVE",
"198 40 OFFCURVE",
"258 -54 OFFCURVE",
"320 -56 QCURVE"
);
}
);
width = 1082;
}
);
note = R;
unicode = 0052;
},
{
color = 4;
glyphname = S;
lastChange = "2019-02-16 21:16:09 +0000";
layers = (
{
layerId = "BCBE6FB0-8B5B-4728-88BC-6AD881489723";
paths = (
{
closed = 1;
nodes = (
"512 -42 OFFCURVE",
"622 16 OFFCURVE",
"656 16 OFFCURVE",
"669 12 OFFCURVE",
"686 12 OFFCURVE",
"704 26 OFFCURVE",
"745 26 OFFCURVE",
"792 56 OFFCURVE",
"828 112 OFFCURVE",
"828 159 OFFCURVE",
"818 174 OFFCURVE",
"818 236 OFFCURVE",
"862 327 OFFCURVE",
"862 436 OFFCURVE",
"778 493 OFFCURVE",
"662 516 OFFCURVE",
"642 530 OFFCURVE",
"598 660 OFFCURVE",
"498 720 OFFCURVE",
"432 736 OFFCURVE",
"432 802 OFFCURVE",
"464 828 OFFCURVE",
"529 828 OFFCURVE",
"607 715 OFFCURVE",
"722 713 OFFCURVE",
"790 781 OFFCURVE",
"790 893 OFFCURVE",
"722 962 OFFCURVE",
"585 962 OFFCURVE",
"528 1026 OFFCURVE",
"482 1026 QCURVE SMOOTH",
"448 1026 OFFCURVE",
"384 975 OFFCURVE",
"332 975 OFFCURVE",
"255 1008 OFFCURVE",
"165 1008 OFFCURVE",
"39 921 OFFCURVE",
"38 771 OFFCURVE",
"132 658 OFFCURVE",
"212 617 OFFCURVE",
"212 580 OFFCURVE",
"204 542 OFFCURVE",
"204 404 OFFCURVE",
"352 280 OFFCURVE",
"448 280 OFFCURVE",
"533 302 OFFCURVE",
"564 302 OFFCURVE",
"582 285 OFFCURVE",
"582 220 OFFCURVE",
"372 167 OFFCURVE",
"372 42 OFFCURVE",
"439 -42 OFFCURVE",
"492 -42 QCURVE SMOOTH"
);
},
{
closed = 1;
nodes = (
"273 12 OFFCURVE",
"331 74 OFFCURVE",
"331 162 OFFCURVE",
"270 230 OFFCURVE",
"218 230 QCURVE SMOOTH",
"165 230 OFFCURVE",
"106 160 OFFCURVE",
"107 79 OFFCURVE",
"168 12 OFFCURVE",
"220 12 QCURVE SMOOTH"
);
}
);
width = 904;
},
{
layerId = "0BD0D975-F19E-4ACA-9A31-41147C737F0B";
paths = (
{
closed = 1;
nodes = (
"512 -42 OFFCURVE",
"622 16 OFFCURVE",
"656 16 OFFCURVE",
"669 12 OFFCURVE",
"686 12 OFFCURVE",
"704 26 OFFCURVE",
"745 26 OFFCURVE",
"792 56 OFFCURVE",
"828 112 OFFCURVE",
"828 159 OFFCURVE",
"818 174 OFFCURVE",
"818 236 OFFCURVE",
"862 327 OFFCURVE",
"862 436 OFFCURVE",
"778 493 OFFCURVE",
"662 516 OFFCURVE",
"642 530 OFFCURVE",
"598 660 OFFCURVE",
"498 720 OFFCURVE",
"432 736 OFFCURVE",
"432 802 OFFCURVE",
"464 828 OFFCURVE",
"529 828 OFFCURVE",
"607 715 OFFCURVE",
"722 713 OFFCURVE",
"790 781 OFFCURVE",
"790 893 OFFCURVE",
"722 962 OFFCURVE",
"585 962 OFFCURVE",
"528 1026 OFFCURVE",
"482 1026 QCURVE SMOOTH",
"448 1026 OFFCURVE",
"384 975 OFFCURVE",
"332 975 OFFCURVE",
"255 1008 OFFCURVE",
"165 1008 OFFCURVE",
"39 921 OFFCURVE",
"38 771 OFFCURVE",
"132 658 OFFCURVE",
"212 617 OFFCURVE",
"212 580 OFFCURVE",
"204 542 OFFCURVE",
"204 404 OFFCURVE",
"352 280 OFFCURVE",
"448 280 OFFCURVE",
"533 302 OFFCURVE",
"564 302 OFFCURVE",
"582 285 OFFCURVE",
"582 220 OFFCURVE",
"372 167 OFFCURVE",
"372 42 OFFCURVE",
"439 -42 OFFCURVE",
"492 -42 QCURVE SMOOTH"
);
},
{
closed = 1;
nodes = (
"273 12 OFFCURVE",
"331 74 OFFCURVE",
"331 162 OFFCURVE",
"270 230 OFFCURVE",
"218 230 QCURVE SMOOTH",
"165 230 OFFCURVE",
"106 160 OFFCURVE",
"107 79 OFFCURVE",
"168 12 OFFCURVE",
"220 12 QCURVE SMOOTH"
);
}
);
width = 904;
}
);
note = S;
unicode = 0053;
},
{
color = 4;
glyphname = T;
lastChange = "2019-02-16 21:16:09 +0000";
layers = (
{
layerId = "BCBE6FB0-8B5B-4728-88BC-6AD881489723";
paths = (
{
closed = 1;
nodes = (
"734 -70 OFFCURVE",
"765 19 OFFCURVE",
"732 94 OFFCURVE",
"720 119 OFFCURVE",
"684 154 OFFCURVE",
"662 224 OFFCURVE",
"662 280 OFFCURVE",
"652 333 OFFCURVE",
"652 406 OFFCURVE",
"662 456 OFFCURVE",
"700 456 OFFCURVE",
"729 450 OFFCURVE",
"752 446 OFFCURVE",
"787 446 OFFCURVE",
"839 474 OFFCURVE",
"889 554 OFFCURVE",
"987 671 OFFCURVE",
"987 728 OFFCURVE",
"931 808 OFFCURVE",
"853 808 OFFCURVE",
"811 785 OFFCURVE",
"786 765 OFFCURVE",
"768 752 OFFCURVE",
"753 741 OFFCURVE",
"738 730 OFFCURVE",
"722 718 OFFCURVE",
"682 733 OFFCURVE",
"679 756 OFFCURVE",
"682 782 OFFCURVE",
"682 856 OFFCURVE",
"672 928 OFFCURVE",
"643 977 OFFCURVE",
"634 1001 OFFCURVE",
"627 1036 OFFCURVE",
"622 1108 OFFCURVE",
"579 1195 OFFCURVE",
"562 1248 OFFCURVE",
"534 1359 OFFCURVE",
"482 1398 QCURVE",
"452 1423 OFFCURVE",
"374 1428 OFFCURVE",
"301 1387 OFFCURVE",
"266 1325 OFFCURVE",
"255 1270 OFFCURVE",
"274 1213 OFFCURVE",
"288 1142 OFFCURVE",
"299 1074 OFFCURVE",
"301 1064 OFFCURVE",
"302 1048 OFFCURVE",
"312 1008 OFFCURVE",
"332 951 OFFCURVE",
"332 858 OFFCURVE",
"322 752 OFFCURVE",
"274 720 OFFCURVE",
"212 728 OFFCURVE",
"104 738 OFFCURVE",
"49 695 OFFCURVE",
"27 628 OFFCURVE",
"55 558 OFFCURVE",
"98 530 OFFCURVE",
"122 523 OFFCURVE",
"136 519 OFFCURVE",
"195 503 OFFCURVE",
"215 424 OFFCURVE",
"230 376 OFFCURVE",
"237 331 OFFCURVE",
"238 294 OFFCURVE",
"244 259 OFFCURVE",
"246 234 OFFCURVE",
"246 173 OFFCURVE",
"294 76 OFFCURVE",
"390 11 OFFCURVE",
"492 -4 OFFCURVE",
"553 -27 OFFCURVE",
"596 -80 OFFCURVE",
"634 -62 OFFCURVE",
"658 -64 QCURVE SMOOTH"
);
}
);
width = 996;
},
{
layerId = "0BD0D975-F19E-4ACA-9A31-41147C737F0B";
paths = (
{
closed = 1;
nodes = (
"696 -62 OFFCURVE",
"754 -4 OFFCURVE",
"756 48 OFFCURVE",
"720 119 OFFCURVE",
"684 154 OFFCURVE",
"662 224 OFFCURVE",
"662 280 OFFCURVE",
"652 333 OFFCURVE",
"652 406 OFFCURVE",
"662 456 OFFCURVE",
"700 456 OFFCURVE",
"729 450 OFFCURVE",
"752 446 OFFCURVE",
"787 446 OFFCURVE",
"839 474 OFFCURVE",
"889 554 OFFCURVE",
"987 671 OFFCURVE",
"987 728 OFFCURVE",
"931 808 OFFCURVE",
"853 808 OFFCURVE",
"811 785 OFFCURVE",
"786 765 OFFCURVE",
"768 752 OFFCURVE",
"753 741 OFFCURVE",
"738 730 OFFCURVE",
"722 718 OFFCURVE",
"682 733 OFFCURVE",
"679 756 OFFCURVE",
"682 782 OFFCURVE",
"682 856 OFFCURVE",
"672 928 OFFCURVE",
"643 977 OFFCURVE",
"634 1001 OFFCURVE",
"627 1036 OFFCURVE",
"622 1108 OFFCURVE",
"579 1195 OFFCURVE",
"562 1248 OFFCURVE",
"534 1359 OFFCURVE",
"482 1398 QCURVE",
"452 1423 OFFCURVE",
"374 1428 OFFCURVE",
"301 1387 OFFCURVE",
"266 1325 OFFCURVE",
"255 1270 OFFCURVE",
"274 1213 OFFCURVE",
"288 1142 OFFCURVE",
"299 1074 OFFCURVE",
"301 1064 OFFCURVE",
"302 1048 OFFCURVE",
"312 1008 OFFCURVE",
"332 951 OFFCURVE",
"332 858 OFFCURVE",
"322 752 OFFCURVE",
"274 720 OFFCURVE",
"212 728 OFFCURVE",
"104 738 OFFCURVE",
"49 695 OFFCURVE",
"27 628 OFFCURVE",
"55 558 OFFCURVE",
"98 530 OFFCURVE",
"122 523 OFFCURVE",
"136 519 OFFCURVE",
"195 503 OFFCURVE",
"215 424 OFFCURVE",
"230 376 OFFCURVE",
"237 331 OFFCURVE",
"238 294 OFFCURVE",
"244 259 OFFCURVE",
"246 234 OFFCURVE",
"246 173 OFFCURVE",
"294 76 OFFCURVE",
"390 11 OFFCURVE",
"492 -4 OFFCURVE",
"553 -27 OFFCURVE",
"582 -48 OFFCURVE",
"634 -65 OFFCURVE",
"658 -64 QCURVE SMOOTH"
);
}
);
width = 996;
}
);
note = T;
unicode = 0054;
},
{
color = 4;
glyphname = U;
lastChange = "2019-02-16 21:16:09 +0000";
layers = (
{
layerId = "BCBE6FB0-8B5B-4728-88BC-6AD881489723";
paths = (
{
closed = 1;
nodes = (
"1014 -154 OFFCURVE",
"1034 -138 OFFCURVE",
"1062 -76 OFFCURVE",
"1054 -32 OFFCURVE",
"1016 6 OFFCURVE",
"985 27 OFFCURVE",
"940 40 OFFCURVE",
"938 60 OFFCURVE",
"948 108 OFFCURVE",
"960 219 OFFCURVE",
"985 340 OFFCURVE",
"1082 568 OFFCURVE",
"963 704 OFFCURVE",
"933 741 OFFCURVE",
"873 780 OFFCURVE",
"896 824 OFFCURVE",
"919 857 OFFCURVE",
"930 878 OFFCURVE",
"938 917 OFFCURVE",
"936 944 OFFCURVE",
"926 975 OFFCURVE",
"916 1040 OFFCURVE",
"850 1106 OFFCURVE",
"802 1106 QCURVE SMOOTH",
"771 1106 OFFCURVE",
"708 1065 OFFCURVE",
"673 1003 OFFCURVE",
"636 950 OFFCURVE",
"572 877 OFFCURVE",
"547 761 OFFCURVE",
"564 667 OFFCURVE",
"568 631 OFFCURVE",
"568 563 OFFCURVE",
"556 480 OFFCURVE",
"544 342 OFFCURVE",
"491 235 OFFCURVE",
"475 223 OFFCURVE",
"450 230 OFFCURVE",
"432 244 OFFCURVE",
"402 298 OFFCURVE",
"429 409 OFFCURVE",
"404 512 OFFCURVE",
"332 659 OFFCURVE",
"309 821 OFFCURVE",
"294 864 OFFCURVE",
"259 934 OFFCURVE",
"184 979 OFFCURVE",
"142 970 QCURVE",
"101 954 OFFCURVE",
"60 901 OFFCURVE",
"20 743 OFFCURVE",
"67 615 OFFCURVE",
"74 544 OFFCURVE",
"74 393 OFFCURVE",
"140 280 OFFCURVE",
"164 198 OFFCURVE",
"164 118 OFFCURVE",
"200 58 OFFCURVE",
"267 24 OFFCURVE",
"314 30 OFFCURVE",
"336 26 OFFCURVE",
"372 10 OFFCURVE",
"387 6 OFFCURVE",
"430 -24 OFFCURVE",
"474 -46 OFFCURVE",
"522 -38 OFFCURVE",
"573 -7 OFFCURVE",
"621 -7 OFFCURVE",
"742 -54 OFFCURVE",
"843 -22 OFFCURVE",
"895 -29 OFFCURVE",
"897 -45 OFFCURVE",
"898 -70 OFFCURVE",
"904 -91 OFFCURVE",
"944 -154 OFFCURVE",
"980 -154 QCURVE SMOOTH"
);
}
);
width = 1052;
},
{
layerId = "0BD0D975-F19E-4ACA-9A31-41147C737F0B";
paths = (
{
closed = 1;
nodes = (
"1014 -154 OFFCURVE",
"1034 -138 OFFCURVE",
"1062 -76 OFFCURVE",
"1054 -32 OFFCURVE",
"1016 6 OFFCURVE",
"985 27 OFFCURVE",
"940 40 OFFCURVE",
"938 60 OFFCURVE",
"948 108 OFFCURVE",
"960 219 OFFCURVE",
"985 340 OFFCURVE",
"1082 568 OFFCURVE",
"963 704 OFFCURVE",
"933 741 OFFCURVE",
"873 780 OFFCURVE",
"896 824 OFFCURVE",
"919 857 OFFCURVE",
"930 878 OFFCURVE",
"938 917 OFFCURVE",
"936 944 OFFCURVE",
"926 975 OFFCURVE",
"916 1040 OFFCURVE",
"850 1106 OFFCURVE",
"802 1106 QCURVE SMOOTH",
"771 1106 OFFCURVE",
"708 1065 OFFCURVE",
"673 1003 OFFCURVE",
"636 950 OFFCURVE",
"572 877 OFFCURVE",
"547 761 OFFCURVE",
"564 667 OFFCURVE",
"568 631 OFFCURVE",
"568 563 OFFCURVE",
"556 480 OFFCURVE",
"544 342 OFFCURVE",
"491 235 OFFCURVE",
"475 223 OFFCURVE",
"450 230 OFFCURVE",
"432 244 OFFCURVE",
"402 298 OFFCURVE",
"429 409 OFFCURVE",
"404 512 OFFCURVE",
"332 659 OFFCURVE",
"309 821 OFFCURVE",
"294 864 OFFCURVE",
"259 934 OFFCURVE",
"184 979 OFFCURVE",
"142 970 QCURVE",
"101 954 OFFCURVE",
"60 901 OFFCURVE",
"20 743 OFFCURVE",
"67 615 OFFCURVE",
"74 544 OFFCURVE",
"74 393 OFFCURVE",
"140 280 OFFCURVE",
"164 198 OFFCURVE",
"164 118 OFFCURVE",
"200 58 OFFCURVE",
"267 24 OFFCURVE",
"314 30 OFFCURVE",
"336 26 OFFCURVE",
"372 10 OFFCURVE",
"387 6 OFFCURVE",
"430 -24 OFFCURVE",
"474 -46 OFFCURVE",
"522 -38 OFFCURVE",
"573 -7 OFFCURVE",
"621 -7 OFFCURVE",
"742 -54 OFFCURVE",
"843 -22 OFFCURVE",
"895 -29 OFFCURVE",
"897 -45 OFFCURVE",
"898 -70 OFFCURVE",
"904 -91 OFFCURVE",
"944 -154 OFFCURVE",
"980 -154 QCURVE SMOOTH"
);
}
);
width = 1052;
}
);
note = U;
unicode = 0055;
},
{
color = 4;
glyphname = V;
lastChange = "2019-02-16 21:16:09 +0000";
layers = (
{
layerId = "BCBE6FB0-8B5B-4728-88BC-6AD881489723";
paths = (
{
closed = 1;
nodes = (
"620 14 OFFCURVE",
"714 102 OFFCURVE",
"739 230 OFFCURVE",
"792 317 OFFCURVE",
"897 355 OFFCURVE",
"957 438 OFFCURVE",
"966 542 OFFCURVE",
"939 623 OFFCURVE",
"932 652 OFFCURVE",
"935 677 OFFCURVE",
"951 719 OFFCURVE",
"954 766 OFFCURVE",
"950 823 OFFCURVE",
"946 860 OFFCURVE",
"940 925 OFFCURVE",
"918 991 OFFCURVE",
"854 1042 OFFCURVE",
"810 1042 QCURVE SMOOTH",
"771 1042 OFFCURVE",
"703 989 OFFCURVE",
"686 940 OFFCURVE",
"679 873 OFFCURVE",
"676 813 OFFCURVE",
"668 730 OFFCURVE",
"650 683 OFFCURVE",
"602 628 OFFCURVE",
"558 560 OFFCURVE",
"547 531 OFFCURVE",
"542 526 QCURVE",
"535 512 OFFCURVE",
"498 508 OFFCURVE",
"484 516 OFFCURVE",
"467 529 OFFCURVE",
"385 609 OFFCURVE",
"331 673 OFFCURVE",
"314 725 OFFCURVE",
"305 741 OFFCURVE",
"269 785 OFFCURVE",
"257 850 OFFCURVE",
"272 958 OFFCURVE",
"238 1006 OFFCURVE",
"185 1032 OFFCURVE",
"158 1032 QCURVE",
"112 1025 OFFCURVE",
"58 945 OFFCURVE",
"72 892 OFFCURVE",
"79 867 OFFCURVE",
"101 810 OFFCURVE",
"48 711 OFFCURVE",
"52 404 OFFCURVE",
"142 259 OFFCURVE",
"271 211 OFFCURVE",
"319 161 OFFCURVE",
"360 78 OFFCURVE",
"416 5 OFFCURVE",
"496 -18 OFFCURVE",
"552 -2 QCURVE"
);
}
);
width = 1002;
},
{
layerId = "0BD0D975-F19E-4ACA-9A31-41147C737F0B";
paths = (
{
closed = 1;
nodes = (
"620 14 OFFCURVE",
"729 102 OFFCURVE",
"754 230 OFFCURVE",
"792 317 OFFCURVE",
"897 355 OFFCURVE",
"957 438 OFFCURVE",
"966 542 OFFCURVE",
"939 623 OFFCURVE",
"932 652 OFFCURVE",
"935 677 OFFCURVE",
"951 719 OFFCURVE",
"954 766 OFFCURVE",
"950 823 OFFCURVE",
"946 860 OFFCURVE",
"940 925 OFFCURVE",
"918 991 OFFCURVE",
"854 1042 OFFCURVE",
"810 1042 QCURVE SMOOTH",
"771 1042 OFFCURVE",
"703 989 OFFCURVE",
"686 940 OFFCURVE",
"679 873 OFFCURVE",
"676 813 OFFCURVE",
"668 730 OFFCURVE",
"650 683 OFFCURVE",
"602 628 OFFCURVE",
"558 560 OFFCURVE",
"547 531 OFFCURVE",
"542 526 QCURVE",
"535 512 OFFCURVE",
"498 508 OFFCURVE",
"484 516 OFFCURVE",
"467 529 OFFCURVE",
"385 609 OFFCURVE",
"331 673 OFFCURVE",
"314 725 OFFCURVE",
"305 741 OFFCURVE",
"269 785 OFFCURVE",
"257 850 OFFCURVE",
"272 958 OFFCURVE",
"238 1006 OFFCURVE",
"185 1032 OFFCURVE",
"158 1032 QCURVE",
"112 1025 OFFCURVE",
"58 945 OFFCURVE",
"72 892 OFFCURVE",
"79 867 OFFCURVE",
"101 810 OFFCURVE",
"48 711 OFFCURVE",
"52 404 OFFCURVE",
"142 259 OFFCURVE",
"271 211 OFFCURVE",
"319 161 OFFCURVE",
"360 78 OFFCURVE",
"416 5 OFFCURVE",
"496 -18 OFFCURVE",
"552 -2 QCURVE"
);
}
);
width = 1002;
}
);
note = V;
unicode = 0056;
},
{
color = 4;
glyphname = W;
lastChange = "2019-02-16 21:16:09 +0000";
layers = (
{
layerId = "BCBE6FB0-8B5B-4728-88BC-6AD881489723";
paths = (
{
closed = 1;
nodes = (
"1020 -103 OFFCURVE",
"1070 -72 OFFCURVE",
"1106 -24 OFFCURVE",
"1136 20 OFFCURVE",
"1167 16 OFFCURVE",
"1272 -2 OFFCURVE",
"1360 56 OFFCURVE",
"1387 149 OFFCURVE",
"1390 155 OFFCURVE",
"1390 184 OFFCURVE",
"1399 213 OFFCURVE",
"1429 262 OFFCURVE",
"1463 314 OFFCURVE",
"1502 382 OFFCURVE",
"1540 442 OFFCURVE",
"1599 515 OFFCURVE",
"1594 639 OFFCURVE",
"1536 706 OFFCURVE",
"1519 726 OFFCURVE",
"1488 756 OFFCURVE",
"1468 805 OFFCURVE",
"1476 858 OFFCURVE",
"1476 897 OFFCURVE",
"1461 967 OFFCURVE",
"1408 1038 OFFCURVE",
"1327 1073 OFFCURVE",
"1278 1066 QCURVE",
"1228 1056 OFFCURVE",
"1154 990 OFFCURVE",
"1121 893 OFFCURVE",
"1141 819 OFFCURVE",
"1163 765 OFFCURVE",
"1193 728 OFFCURVE",
"1210 694 OFFCURVE",
"1210 630 OFFCURVE",
"1190 548 OFFCURVE",
"1162 504 OFFCURVE",
"1139 492 OFFCURVE",
"1116 501 OFFCURVE",
"1100 533 OFFCURVE",
"1054 666 OFFCURVE",
"960 758 OFFCURVE",
"952 799 OFFCURVE",
"952 844 OFFCURVE",
"961 875 OFFCURVE",
"966 893 OFFCURVE",
"981 984 OFFCURVE",
"932 1036 QCURVE",
"904 1068 OFFCURVE",
"824 1094 OFFCURVE",
"745 1077 OFFCURVE",
"682 1008 OFFCURVE",
"617 920 OFFCURVE",
"551 833 OFFCURVE",
"540 778 OFFCURVE",
"540 707 OFFCURVE",
"543 670 OFFCURVE",
"550 599 OFFCURVE",
"508 539 OFFCURVE",
"469 535 OFFCURVE",
"370 617 OFFCURVE",
"379 735 OFFCURVE",
"384 774 OFFCURVE",
"391 847 OFFCURVE",
"338 937 OFFCURVE",
"296 956 QCURVE",
"207 986 OFFCURVE",
"96 850 OFFCURVE",
"16 738 OFFCURVE",
"55 613 OFFCURVE",
"58 554 OFFCURVE",
"58 450 OFFCURVE",
"106 337 OFFCURVE",
"181 263 OFFCURVE",
"206 226 OFFCURVE",
"222 157 OFFCURVE",
"235 131 OFFCURVE",
"266 93 OFFCURVE",
"354 28 OFFCURVE",
"452 -18 OFFCURVE",
"567 -26 OFFCURVE",
"715 3 OFFCURVE",
"801 65 OFFCURVE",
"867 92 OFFCURVE",
"898 75 OFFCURVE",
"898 19 OFFCURVE",
"901 -14 OFFCURVE",
"921 -59 OFFCURVE",
"956 -96 OFFCURVE",
"986 -96 QCURVE"
);
}
);
width = 1626;
},
{
layerId = "0BD0D975-F19E-4ACA-9A31-41147C737F0B";
paths = (
{
closed = 1;
nodes = (
"1020 -103 OFFCURVE",
"1070 -72 OFFCURVE",
"1106 -24 OFFCURVE",
"1136 20 OFFCURVE",
"1167 16 OFFCURVE",
"1272 -2 OFFCURVE",
"1360 56 OFFCURVE",
"1387 149 OFFCURVE",
"1390 155 OFFCURVE",
"1390 184 OFFCURVE",
"1399 213 OFFCURVE",
"1429 262 OFFCURVE",
"1463 314 OFFCURVE",
"1502 382 OFFCURVE",
"1540 442 OFFCURVE",
"1599 515 OFFCURVE",
"1594 639 OFFCURVE",
"1536 706 OFFCURVE",
"1519 726 OFFCURVE",
"1488 756 OFFCURVE",
"1468 805 OFFCURVE",
"1476 858 OFFCURVE",
"1476 897 OFFCURVE",
"1461 967 OFFCURVE",
"1408 1038 OFFCURVE",
"1327 1073 OFFCURVE",
"1278 1066 QCURVE",
"1228 1056 OFFCURVE",
"1154 990 OFFCURVE",
"1121 893 OFFCURVE",
"1141 819 OFFCURVE",
"1163 765 OFFCURVE",
"1193 728 OFFCURVE",
"1210 694 OFFCURVE",
"1210 630 OFFCURVE",
"1190 548 OFFCURVE",
"1162 504 OFFCURVE",
"1139 492 OFFCURVE",
"1116 501 OFFCURVE",
"1100 533 OFFCURVE",
"1054 666 OFFCURVE",
"960 758 OFFCURVE",
"952 799 OFFCURVE",
"952 844 OFFCURVE",
"961 875 OFFCURVE",
"966 893 OFFCURVE",
"981 984 OFFCURVE",
"932 1036 QCURVE",
"904 1068 OFFCURVE",
"824 1094 OFFCURVE",
"745 1077 OFFCURVE",
"682 1008 OFFCURVE",
"617 920 OFFCURVE",
"551 833 OFFCURVE",
"540 778 OFFCURVE",
"540 707 OFFCURVE",
"543 670 OFFCURVE",
"550 599 OFFCURVE",
"508 539 OFFCURVE",
"469 535 OFFCURVE",
"370 617 OFFCURVE",
"379 735 OFFCURVE",
"384 774 OFFCURVE",
"391 847 OFFCURVE",
"338 937 OFFCURVE",
"296 956 QCURVE",
"207 986 OFFCURVE",
"96 850 OFFCURVE",
"16 738 OFFCURVE",
"55 613 OFFCURVE",
"58 554 OFFCURVE",
"58 450 OFFCURVE",
"106 337 OFFCURVE",
"181 263 OFFCURVE",
"206 226 OFFCURVE",
"222 157 OFFCURVE",
"235 131 OFFCURVE",
"266 93 OFFCURVE",
"354 28 OFFCURVE",
"452 -18 OFFCURVE",
"567 -26 OFFCURVE",
"715 3 OFFCURVE",
"801 65 OFFCURVE",
"867 92 OFFCURVE",
"898 75 OFFCURVE",
"898 19 OFFCURVE",
"901 -14 OFFCURVE",
"921 -59 OFFCURVE",
"956 -96 OFFCURVE",
"986 -96 QCURVE"
);
}
);
width = 1626;
}
);
note = W;
unicode = 0057;
},
{
color = 4;
glyphname = X;
lastChange = "2019-02-16 21:16:09 +0000";
layers = (
{
layerId = "BCBE6FB0-8B5B-4728-88BC-6AD881489723";
paths = (
{
closed = 1;
nodes = (
"818 -48 OFFCURVE",
"933 -29 OFFCURVE",
"1062 12 OFFCURVE",
"1107 64 OFFCURVE",
"1116 154 OFFCURVE",
"1114 218 OFFCURVE",
"1100 300 OFFCURVE",
"1100 358 OFFCURVE",
"1072 428 OFFCURVE",
"1023 475 OFFCURVE",
"922 552 OFFCURVE",
"896 583 OFFCURVE",
"852 626 OFFCURVE",
"799 661 OFFCURVE",
"763 687 OFFCURVE",
"680 750 OFFCURVE",
"578 807 OFFCURVE",
"466 839 OFFCURVE",
"397 896 OFFCURVE",
"353 976 OFFCURVE",
"315 1017 OFFCURVE",
"284 1032 QCURVE",
"236 1060 OFFCURVE",
"124 1052 OFFCURVE",
"36 986 OFFCURVE",
"-2 835 OFFCURVE",
"76 740 OFFCURVE",
"104 710 OFFCURVE",
"168 652 OFFCURVE",
"193 489 OFFCURVE",
"281 341 OFFCURVE",
"374 258 OFFCURVE",
"427 198 OFFCURVE",
"456 164 OFFCURVE",
"511 93 OFFCURVE",
"641 -22 OFFCURVE",
"760 -40 QCURVE SMOOTH"
);
},
{
closed = 1;
nodes = (
"974 721 OFFCURVE",
"1036 808 OFFCURVE",
"1053 911 OFFCURVE",
"1020 996 OFFCURVE",
"957 1046 OFFCURVE",
"916 1054 QCURVE SMOOTH",
"866 1063 OFFCURVE",
"794 1031 OFFCURVE",
"744 965 OFFCURVE",
"728 901 OFFCURVE",
"728 844 OFFCURVE",
"773 725 OFFCURVE",
"830 708 OFFCURVE",
"926 700 QCURVE"
);
},
{
closed = 1;
nodes = (
"217 -52 OFFCURVE",
"330 70 OFFCURVE",
"321 175 OFFCURVE",
"238 245 OFFCURVE",
"174 236 QCURVE",
"109 236 OFFCURVE",
"30 149 OFFCURVE",
"30 44 OFFCURVE",
"136 -52 OFFCURVE",
"174 -52 QCURVE SMOOTH"
);
}
);
width = 1132;
},
{
layerId = "0BD0D975-F19E-4ACA-9A31-41147C737F0B";
paths = (
{
closed = 1;
nodes = (
"1114 214 LINE",
"1114 224 OFFCURVE",
"1100 294 OFFCURVE",
"1100 304 CURVE SMOOTH",
"1100 438 OFFCURVE",
"1032 464 OFFCURVE",
"932 542 CURVE",
"910 564 OFFCURVE",
"894 590 OFFCURVE",
"870 612 CURVE",
"826 646 OFFCURVE",
"782 668 OFFCURVE",
"750 700 CURVE",
"672 756 OFFCURVE",
"606 800 OFFCURVE",
"518 822 CURVE",
"450 844 OFFCURVE",
"406 878 OFFCURVE",
"374 944 CURVE",
"352 978 OFFCURVE",
"330 1010 OFFCURVE",
"284 1032 CURVE",
"186 1088 OFFCURVE",
"52 1044 OFFCURVE",
"20 932 CURVE",
"8 878 OFFCURVE",
"8 822 OFFCURVE",
"42 778 CURVE",
"64 756 OFFCURVE",
"86 722 OFFCURVE",
"120 700 CURVE",
"152 668 OFFCURVE",
"174 624 OFFCURVE",
"186 568 CURVE",
"196 458 OFFCURVE",
"262 358 OFFCURVE",
"352 280 CURVE",
"396 236 OFFCURVE",
"428 192 OFFCURVE",
"472 148 CURVE",
"496 114 OFFCURVE",
"528 82 OFFCURVE",
"562 60 CURVE",
"616 4 OFFCURVE",
"682 -28 OFFCURVE",
"760 -40 CURVE SMOOTH",
"848 -52 OFFCURVE",
"938 -28 OFFCURVE",
"1026 -6 CURVE",
"1070 16 OFFCURVE",
"1104 48 OFFCURVE",
"1114 104 CURVE",
"1114 136 OFFCURVE",
"1116 148 OFFCURVE",
"1116 182 CURVE"
);
},
{
closed = 1;
nodes = (
"728 834 OFFCURVE",
"738 812 OFFCURVE",
"750 790 CURVE",
"782 700 OFFCURVE",
"848 678 OFFCURVE",
"926 700 CURVE",
"1026 744 OFFCURVE",
"1070 866 OFFCURVE",
"1036 956 CURVE SMOOTH",
"1014 1010 OFFCURVE",
"970 1044 OFFCURVE",
"916 1054 CURVE SMOOTH",
"848 1066 OFFCURVE",
"804 1044 OFFCURVE",
"760 988 CURVE",
"738 956 OFFCURVE",
"728 910 OFFCURVE",
"728 866 CURVE SMOOTH"
);
},
{
closed = 1;
nodes = (
"262 -52 OFFCURVE",
"330 26 OFFCURVE",
"330 114 CURVE",
"318 192 OFFCURVE",
"262 248 OFFCURVE",
"174 236 CURVE",
"86 236 OFFCURVE",
"30 170 OFFCURVE",
"30 82 CURVE SMOOTH",
"30 4 OFFCURVE",
"98 -52 OFFCURVE",
"174 -52 CURVE SMOOTH"
);
}
);
width = 1132;
}
);
note = X;
unicode = 0058;
},
{
color = 4;
glyphname = Y;
lastChange = "2019-02-16 21:16:09 +0000";
layers = (
{
layerId = "BCBE6FB0-8B5B-4728-88BC-6AD881489723";
paths = (
{
closed = 1;
nodes = (
"501 -466 OFFCURVE",
"565 -420 OFFCURVE",
"607 -316 OFFCURVE",
"674 -257 OFFCURVE",
"789 -225 OFFCURVE",
"858 -118 OFFCURVE",
"857 28 OFFCURVE",
"860 60 OFFCURVE",
"878 90 OFFCURVE",
"922 141 OFFCURVE",
"1016 292 OFFCURVE",
"1016 482 OFFCURVE",
"977 587 OFFCURVE",
"958 622 OFFCURVE",
"932 663 OFFCURVE",
"922 701 OFFCURVE",
"936 798 OFFCURVE",
"939 865 OFFCURVE",
"934 925 OFFCURVE",
"891 985 OFFCURVE",
"842 1000 QCURVE",
"796 1023 OFFCURVE",
"712 994 OFFCURVE",
"661 918 OFFCURVE",
"640 882 OFFCURVE",
"623 841 OFFCURVE",
"618 820 OFFCURVE",
"612 785 OFFCURVE",
"599 745 OFFCURVE",
"570 712 OFFCURVE",
"530 696 OFFCURVE",
"487 725 OFFCURVE",
"480 882 OFFCURVE",
"477 938 OFFCURVE",
"453 1038 OFFCURVE",
"353 1121 OFFCURVE",
"290 1114 QCURVE",
"254 1114 OFFCURVE",
"190 1068 OFFCURVE",
"149 987 OFFCURVE",
"144 920 OFFCURVE",
"140 884 OFFCURVE",
"143 848 OFFCURVE",
"153 805 OFFCURVE",
"159 778 OFFCURVE",
"174 742 OFFCURVE",
"171 688 OFFCURVE",
"150 662 OFFCURVE",
"134 640 OFFCURVE",
"112 604 OFFCURVE",
"95 578 OFFCURVE",
"69 535 OFFCURVE",
"40 459 OFFCURVE",
"40 307 OFFCURVE",
"112 152 OFFCURVE",
"237 60 OFFCURVE",
"328 64 OFFCURVE",
"402 74 OFFCURVE",
"426 74 OFFCURVE",
"456 86 OFFCURVE",
"486 86 OFFCURVE",
"512 55 OFFCURVE",
"512 32 QCURVE SMOOTH",
"512 -2 OFFCURVE",
"491 -58 OFFCURVE",
"452 -80 OFFCURVE",
"412 -98 OFFCURVE",
"366 -144 OFFCURVE",
"287 -144 OFFCURVE",
"212 -78 OFFCURVE",
"155 -78 OFFCURVE",
"110 -102 OFFCURVE",
"52 -155 OFFCURVE",
"23 -255 OFFCURVE",
"55 -352 OFFCURVE",
"129 -405 OFFCURVE",
"186 -398 OFFCURVE",
"212 -388 OFFCURVE",
"233 -383 OFFCURVE",
"263 -373 OFFCURVE",
"286 -358 OFFCURVE",
"308 -362 OFFCURVE",
"327 -387 OFFCURVE",
"360 -420 OFFCURVE",
"412 -466 OFFCURVE",
"462 -466 QCURVE SMOOTH"
);
}
);
width = 1060;
},
{
layerId = "0BD0D975-F19E-4ACA-9A31-41147C737F0B";
paths = (
{
closed = 1;
nodes = (
"501 -466 OFFCURVE",
"565 -420 OFFCURVE",
"607 -316 OFFCURVE",
"674 -257 OFFCURVE",
"789 -225 OFFCURVE",
"858 -118 OFFCURVE",
"857 28 OFFCURVE",
"860 60 OFFCURVE",
"878 90 OFFCURVE",
"922 141 OFFCURVE",
"1016 292 OFFCURVE",
"1016 482 OFFCURVE",
"977 587 OFFCURVE",
"958 622 OFFCURVE",
"932 663 OFFCURVE",
"922 701 OFFCURVE",
"936 798 OFFCURVE",
"939 865 OFFCURVE",
"934 925 OFFCURVE",
"891 985 OFFCURVE",
"842 1000 QCURVE",
"796 1023 OFFCURVE",
"712 994 OFFCURVE",
"661 918 OFFCURVE",
"640 882 OFFCURVE",
"623 841 OFFCURVE",
"618 820 OFFCURVE",
"612 785 OFFCURVE",
"599 745 OFFCURVE",
"570 712 OFFCURVE",
"530 696 OFFCURVE",
"487 725 OFFCURVE",
"480 882 OFFCURVE",
"477 938 OFFCURVE",
"453 1038 OFFCURVE",
"353 1121 OFFCURVE",
"290 1114 QCURVE",
"254 1114 OFFCURVE",
"190 1068 OFFCURVE",
"149 987 OFFCURVE",
"144 920 OFFCURVE",
"140 884 OFFCURVE",
"143 848 OFFCURVE",
"153 805 OFFCURVE",
"159 778 OFFCURVE",
"174 742 OFFCURVE",
"171 688 OFFCURVE",
"150 662 OFFCURVE",
"134 640 OFFCURVE",
"112 604 OFFCURVE",
"95 578 OFFCURVE",
"69 535 OFFCURVE",
"40 459 OFFCURVE",
"40 307 OFFCURVE",
"112 152 OFFCURVE",
"237 60 OFFCURVE",
"328 64 OFFCURVE",
"402 74 OFFCURVE",
"426 74 OFFCURVE",
"456 86 OFFCURVE",
"486 86 OFFCURVE",
"512 55 OFFCURVE",
"512 32 QCURVE SMOOTH",
"512 -2 OFFCURVE",
"491 -58 OFFCURVE",
"452 -80 OFFCURVE",
"412 -98 OFFCURVE",
"366 -144 OFFCURVE",
"287 -144 OFFCURVE",
"212 -78 OFFCURVE",
"155 -78 OFFCURVE",
"110 -102 OFFCURVE",
"52 -155 OFFCURVE",
"23 -255 OFFCURVE",
"55 -352 OFFCURVE",
"129 -405 OFFCURVE",
"186 -398 OFFCURVE",
"212 -388 OFFCURVE",
"233 -383 OFFCURVE",
"263 -373 OFFCURVE",
"286 -358 OFFCURVE",
"308 -362 OFFCURVE",
"327 -387 OFFCURVE",
"360 -420 OFFCURVE",
"412 -466 OFFCURVE",
"462 -466 QCURVE SMOOTH"
);
}
);
width = 1060;
}
);
note = Y;
unicode = 0059;
},
{
color = 4;
glyphname = Z;
lastChange = "2019-02-16 21:16:09 +0000";
layers = (
{
layerId = "BCBE6FB0-8B5B-4728-88BC-6AD881489723";
paths = (
{
closed = 1;
nodes = (
"1108 -163 OFFCURVE",
"1185 -95 OFFCURVE",
"1203 10 OFFCURVE",
"1171 106 OFFCURVE",
"1091 168 OFFCURVE",
"1016 185 OFFCURVE",
"954 162 OFFCURVE",
"914 138 OFFCURVE",
"889 124 OFFCURVE",
"870 112 OFFCURVE",
"844 108 OFFCURVE",
"804 108 OFFCURVE",
"776 119 OFFCURVE",
"750 132 QCURVE",
"730 152 OFFCURVE",
"721 187 OFFCURVE",
"774 238 OFFCURVE",
"796 261 OFFCURVE",
"863 317 OFFCURVE",
"927 431 OFFCURVE",
"946 601 OFFCURVE",
"970 656 OFFCURVE",
"1019 705 OFFCURVE",
"1050 740 OFFCURVE",
"1090 814 OFFCURVE",
"1082 905 OFFCURVE",
"1018 1006 OFFCURVE",
"918 1038 OFFCURVE",
"866 1020 QCURVE",
"823 999 OFFCURVE",
"807 990 OFFCURVE",
"792 986 OFFCURVE",
"752 974 OFFCURVE",
"704 992 OFFCURVE",
"624 977 OFFCURVE",
"576 956 OFFCURVE",
"541 967 OFFCURVE",
"508 974 OFFCURVE",
"477 974 OFFCURVE",
"451 963 OFFCURVE",
"416 942 OFFCURVE",
"376 950 OFFCURVE",
"328 998 OFFCURVE",
"298 1024 OFFCURVE",
"282 1032 QCURVE",
"236 1060 OFFCURVE",
"134 1046 OFFCURVE",
"54 973 OFFCURVE",
"25 882 OFFCURVE",
"44 790 OFFCURVE",
"89 705 OFFCURVE",
"153 656 OFFCURVE",
"225 651 OFFCURVE",
"302 678 OFFCURVE",
"340 716 OFFCURVE",
"393 781 OFFCURVE",
"428 816 OFFCURVE",
"475 808 OFFCURVE",
"512 798 OFFCURVE",
"531 784 OFFCURVE",
"540 776 QCURVE",
"531 760 OFFCURVE",
"516 731 OFFCURVE",
"505 695 OFFCURVE",
"469 633 OFFCURVE",
"451 598 OFFCURVE",
"427 530 OFFCURVE",
"371 462 OFFCURVE",
"321 436 OFFCURVE",
"306 424 OFFCURVE",
"243 361 OFFCURVE",
"184 270 OFFCURVE",
"176 171 OFFCURVE",
"160 94 OFFCURVE",
"136 21 OFFCURVE",
"160 -32 OFFCURVE",
"207 -60 OFFCURVE",
"270 -47 OFFCURVE",
"326 -44 OFFCURVE",
"400 -44 OFFCURVE",
"442 -40 OFFCURVE",
"513 -23 OFFCURVE",
"587 -52 OFFCURVE",
"647 -161 OFFCURVE",
"744 -188 OFFCURVE",
"808 -153 OFFCURVE",
"829 -139 OFFCURVE",
"855 -121 OFFCURVE",
"904 -125 OFFCURVE",
"964 -155 OFFCURVE",
"1019 -172 OFFCURVE",
"1054 -172 QCURVE"
);
}
);
width = 1230;
},
{
layerId = "0BD0D975-F19E-4ACA-9A31-41147C737F0B";
paths = (
{
closed = 1;
nodes = (
"1108 -163 OFFCURVE",
"1185 -95 OFFCURVE",
"1203 10 OFFCURVE",
"1171 106 OFFCURVE",
"1091 168 OFFCURVE",
"1016 185 OFFCURVE",
"954 162 OFFCURVE",
"914 138 OFFCURVE",
"889 124 OFFCURVE",
"870 112 OFFCURVE",
"844 108 OFFCURVE",
"804 108 OFFCURVE",
"776 119 OFFCURVE",
"750 132 QCURVE",
"730 152 OFFCURVE",
"721 187 OFFCURVE",
"774 238 OFFCURVE",
"796 261 OFFCURVE",
"863 317 OFFCURVE",
"927 431 OFFCURVE",
"946 601 OFFCURVE",
"970 656 OFFCURVE",
"1019 705 OFFCURVE",
"1050 740 OFFCURVE",
"1090 814 OFFCURVE",
"1082 905 OFFCURVE",
"1018 1006 OFFCURVE",
"918 1038 OFFCURVE",
"866 1020 QCURVE",
"823 999 OFFCURVE",
"807 990 OFFCURVE",
"792 986 OFFCURVE",
"752 974 OFFCURVE",
"704 992 OFFCURVE",
"624 977 OFFCURVE",
"576 956 OFFCURVE",
"541 967 OFFCURVE",
"508 974 OFFCURVE",
"477 974 OFFCURVE",
"451 963 OFFCURVE",
"416 942 OFFCURVE",
"376 950 OFFCURVE",
"328 998 OFFCURVE",
"298 1024 OFFCURVE",
"282 1032 QCURVE",
"236 1060 OFFCURVE",
"134 1046 OFFCURVE",
"54 973 OFFCURVE",
"25 882 OFFCURVE",
"44 790 OFFCURVE",
"89 705 OFFCURVE",
"153 656 OFFCURVE",
"225 651 OFFCURVE",
"302 678 OFFCURVE",
"340 716 OFFCURVE",
"393 781 OFFCURVE",
"428 816 OFFCURVE",
"475 808 OFFCURVE",
"512 798 OFFCURVE",
"531 784 OFFCURVE",
"540 776 QCURVE",
"531 760 OFFCURVE",
"516 731 OFFCURVE",
"505 695 OFFCURVE",
"469 633 OFFCURVE",
"451 598 OFFCURVE",
"427 530 OFFCURVE",
"371 462 OFFCURVE",
"321 436 OFFCURVE",
"306 424 OFFCURVE",
"243 361 OFFCURVE",
"184 270 OFFCURVE",
"176 171 OFFCURVE",
"160 94 OFFCURVE",
"136 21 OFFCURVE",
"160 -32 OFFCURVE",
"207 -60 OFFCURVE",
"270 -47 OFFCURVE",
"326 -44 OFFCURVE",
"400 -44 OFFCURVE",
"442 -40 OFFCURVE",
"513 -23 OFFCURVE",
"587 -52 OFFCURVE",
"647 -161 OFFCURVE",
"744 -188 OFFCURVE",
"808 -153 OFFCURVE",
"829 -139 OFFCURVE",
"855 -121 OFFCURVE",
"904 -125 OFFCURVE",
"964 -155 OFFCURVE",
"1019 -172 OFFCURVE",
"1054 -172 QCURVE"
);
}
);
width = 1230;
}
);
note = Z;
unicode = 005A;
},
{
color = 4;
glyphname = .notdef;
lastChange = "2019-02-16 20:30:27 +0000";
layers = (
{
layerId = "BCBE6FB0-8B5B-4728-88BC-6AD881489723";
paths = (
{
closed = 1;
nodes = (
"50 0 LINE",
"950 0 LINE",
"950 1400 LINE",
"50 1400 LINE"
);
},
{
closed = 1;
nodes = (
"150 1308 LINE",
"850 1308 LINE",
"850 100 LINE",
"150 100 LINE"
);
}
);
width = 1000;
},
{
layerId = "0BD0D975-F19E-4ACA-9A31-41147C737F0B";
paths = (
{
closed = 1;
nodes = (
"50 0 LINE",
"950 0 LINE",
"950 1400 LINE",
"50 1400 LINE"
);
},
{
closed = 1;
nodes = (
"150 1308 LINE",
"850 1308 LINE",
"850 100 LINE",
"150 100 LINE"
);
}
);
width = 1000;
}
);
note = .notdef;
},
{
color = 4;
glyphname = at;
lastChange = "2019-02-16 20:33:21 +0000";
layers = (
{
layerId = "BCBE6FB0-8B5B-4728-88BC-6AD881489723";
paths = (
{
closed = 1;
nodes = (
"624 476 OFFCURVE",
"641 501 OFFCURVE",
"664 514 OFFCURVE",
"709 514 OFFCURVE",
"728 522 OFFCURVE",
"749 536 OFFCURVE",
"764 537 OFFCURVE",
"798 513 OFFCURVE",
"834 522 OFFCURVE",
"852 563 OFFCURVE",
"846 589 OFFCURVE",
"854 603 OFFCURVE",
"889 618 OFFCURVE",
"890 660 OFFCURVE",
"865 696 OFFCURVE",
"842 694 QCURVE",
"827 692 OFFCURVE",
"801 662 OFFCURVE",
"803 615 OFFCURVE",
"782 604 OFFCURVE",
"757 611 OFFCURVE",
"753 621 OFFCURVE",
"707 649 OFFCURVE",
"685 684 OFFCURVE",
"737 721 OFFCURVE",
"752 744 OFFCURVE",
"765 780 OFFCURVE",
"779 801 OFFCURVE",
"828 831 OFFCURVE",
"822 918 OFFCURVE",
"782 1009 OFFCURVE",
"745 1059 OFFCURVE",
"724 1082 OFFCURVE",
"671 1095 OFFCURVE",
"628 1084 QCURVE SMOOTH",
"558 1066 OFFCURVE",
"498 1030 OFFCURVE",
"479 982 OFFCURVE",
"464 963 OFFCURVE",
"442 943 OFFCURVE",
"428 929 OFFCURVE",
"403 901 OFFCURVE",
"410 836 OFFCURVE",
"458 790 OFFCURVE",
"515 796 OFFCURVE",
"558 817 OFFCURVE",
"574 820 OFFCURVE",
"586 809 OFFCURVE",
"595 768 OFFCURVE",
"586 747 OFFCURVE",
"551 717 OFFCURVE",
"527 681 OFFCURVE",
"533 652 OFFCURVE",
"555 614 OFFCURVE",
"558 586 OFFCURVE",
"526 554 OFFCURVE",
"520 488 OFFCURVE",
"565 455 OFFCURVE",
"614 472 QCURVE SMOOTH"
);
},
{
closed = 1;
nodes = (
"1045 461 OFFCURVE",
"1065 498 OFFCURVE",
"1070 560 OFFCURVE",
"1084 585 OFFCURVE",
"1123 576 OFFCURVE",
"1152 567 OFFCURVE",
"1195 553 OFFCURVE",
"1226 550 OFFCURVE",
"1251 571 OFFCURVE",
"1268 575 OFFCURVE",
"1306 576 OFFCURVE",
"1329 590 OFFCURVE",
"1340 651 OFFCURVE",
"1306 676 OFFCURVE",
"1265 687 OFFCURVE",
"1250 692 OFFCURVE",
"1233 705 OFFCURVE",
"1168 723 OFFCURVE",
"1144 738 OFFCURVE",
"1153 765 OFFCURVE",
"1172 776 OFFCURVE",
"1211 778 OFFCURVE",
"1226 780 OFFCURVE",
"1266 820 OFFCURVE",
"1288 873 OFFCURVE",
"1252 965 OFFCURVE",
"1170 950 QCURVE SMOOTH",
"1144 945 OFFCURVE",
"1110 908 OFFCURVE",
"1100 857 OFFCURVE",
"1107 819 OFFCURVE",
"1101 808 OFFCURVE",
"1080 800 OFFCURVE",
"1064 772 OFFCURVE",
"1054 758 OFFCURVE",
"1032 760 OFFCURVE",
"1001 800 OFFCURVE",
"992 828 OFFCURVE",
"996 852 OFFCURVE",
"987 974 OFFCURVE",
"900 962 QCURVE SMOOTH",
"874 958 OFFCURVE",
"854 916 OFFCURVE",
"858 868 OFFCURVE",
"873 847 OFFCURVE",
"896 790 OFFCURVE",
"883 746 OFFCURVE",
"890 723 OFFCURVE",
"909 691 OFFCURVE",
"916 674 OFFCURVE",
"916 644 OFFCURVE",
"924 616 OFFCURVE",
"938 592 OFFCURVE",
"946 576 OFFCURVE",
"952 508 OFFCURVE",
"976 459 OFFCURVE",
"1012 460 QCURVE SMOOTH"
);
},
{
closed = 1;
nodes = (
"216 265 OFFCURVE",
"252 248 OFFCURVE",
"296 261 OFFCURVE",
"323 299 OFFCURVE",
"335 302 OFFCURVE",
"351 296 OFFCURVE",
"364 292 OFFCURVE",
"389 292 OFFCURVE",
"424 312 OFFCURVE",
"446 347 OFFCURVE",
"439 386 OFFCURVE",
"446 400 OFFCURVE",
"463 415 OFFCURVE",
"474 424 OFFCURVE",
"499 450 OFFCURVE",
"492 499 OFFCURVE",
"473 540 OFFCURVE",
"474 558 OFFCURVE",
"483 581 OFFCURVE",
"505 668 OFFCURVE",
"415 733 OFFCURVE",
"400 755 OFFCURVE",
"391 776 OFFCURVE",
"384 793 OFFCURVE",
"376 800 QCURVE SMOOTH",
"352 824 OFFCURVE",
"296 818 OFFCURVE",
"261 771 OFFCURVE",
"280 668 OFFCURVE",
"229 668 OFFCURVE",
"222 678 OFFCURVE",
"212 717 OFFCURVE",
"180 754 OFFCURVE",
"133 771 OFFCURVE",
"104 760 QCURVE SMOOTH",
"76 749 OFFCURVE",
"58 710 OFFCURVE",
"64 673 OFFCURVE",
"71 660 OFFCURVE",
"102 624 OFFCURVE",
"117 594 OFFCURVE",
"99 558 OFFCURVE",
"100 484 OFFCURVE",
"153 421 OFFCURVE",
"216 416 QCURVE SMOOTH",
"246 414 OFFCURVE",
"284 435 OFFCURVE",
"318 470 OFFCURVE",
"337 476 OFFCURVE",
"359 449 OFFCURVE",
"348 422 OFFCURVE",
"327 397 OFFCURVE",
"317 383 OFFCURVE",
"312 367 OFFCURVE",
"294 363 OFFCURVE",
"268 366 OFFCURVE",
"243 365 OFFCURVE",
"214 340 OFFCURVE",
"201 301 OFFCURVE",
"208 284 QCURVE SMOOTH"
);
}
);
width = 1336;
},
{
layerId = "0BD0D975-F19E-4ACA-9A31-41147C737F0B";
paths = (
{
closed = 1;
nodes = (
"624 476 OFFCURVE",
"641 501 OFFCURVE",
"664 514 OFFCURVE",
"709 514 OFFCURVE",
"728 522 OFFCURVE",
"749 536 OFFCURVE",
"764 537 OFFCURVE",
"798 513 OFFCURVE",
"834 522 OFFCURVE",
"852 563 OFFCURVE",
"846 589 OFFCURVE",
"854 603 OFFCURVE",
"889 618 OFFCURVE",
"890 660 OFFCURVE",
"865 696 OFFCURVE",
"842 694 QCURVE",
"827 692 OFFCURVE",
"801 662 OFFCURVE",
"803 615 OFFCURVE",
"782 604 OFFCURVE",
"757 611 OFFCURVE",
"753 621 OFFCURVE",
"707 649 OFFCURVE",
"685 684 OFFCURVE",
"737 721 OFFCURVE",
"752 744 OFFCURVE",
"765 780 OFFCURVE",
"779 801 OFFCURVE",
"828 831 OFFCURVE",
"822 918 OFFCURVE",
"782 1009 OFFCURVE",
"745 1059 OFFCURVE",
"724 1082 OFFCURVE",
"671 1095 OFFCURVE",
"628 1084 QCURVE SMOOTH",
"558 1066 OFFCURVE",
"498 1030 OFFCURVE",
"479 982 OFFCURVE",
"464 963 OFFCURVE",
"442 943 OFFCURVE",
"428 929 OFFCURVE",
"403 901 OFFCURVE",
"410 836 OFFCURVE",
"458 790 OFFCURVE",
"515 796 OFFCURVE",
"558 817 OFFCURVE",
"574 820 OFFCURVE",
"586 809 OFFCURVE",
"595 768 OFFCURVE",
"586 747 OFFCURVE",
"551 717 OFFCURVE",
"527 681 OFFCURVE",
"533 652 OFFCURVE",
"555 614 OFFCURVE",
"558 586 OFFCURVE",
"526 554 OFFCURVE",
"520 488 OFFCURVE",
"565 455 OFFCURVE",
"614 472 QCURVE SMOOTH"
);
},
{
closed = 1;
nodes = (
"1045 461 OFFCURVE",
"1065 498 OFFCURVE",
"1070 560 OFFCURVE",
"1084 585 OFFCURVE",
"1123 576 OFFCURVE",
"1152 567 OFFCURVE",
"1195 553 OFFCURVE",
"1226 550 OFFCURVE",
"1251 571 OFFCURVE",
"1268 575 OFFCURVE",
"1306 576 OFFCURVE",
"1329 590 OFFCURVE",
"1340 651 OFFCURVE",
"1306 676 OFFCURVE",
"1265 687 OFFCURVE",
"1250 692 OFFCURVE",
"1233 705 OFFCURVE",
"1168 723 OFFCURVE",
"1144 738 OFFCURVE",
"1153 765 OFFCURVE",
"1172 776 OFFCURVE",
"1211 778 OFFCURVE",
"1226 780 OFFCURVE",
"1266 820 OFFCURVE",
"1288 873 OFFCURVE",
"1252 965 OFFCURVE",
"1170 950 QCURVE SMOOTH",
"1144 945 OFFCURVE",
"1110 908 OFFCURVE",
"1100 857 OFFCURVE",
"1107 819 OFFCURVE",
"1101 808 OFFCURVE",
"1080 800 OFFCURVE",
"1064 772 OFFCURVE",
"1054 758 OFFCURVE",
"1032 760 OFFCURVE",
"1001 800 OFFCURVE",
"992 828 OFFCURVE",
"996 852 OFFCURVE",
"987 974 OFFCURVE",
"900 962 QCURVE SMOOTH",
"874 958 OFFCURVE",
"854 916 OFFCURVE",
"858 868 OFFCURVE",
"873 847 OFFCURVE",
"896 790 OFFCURVE",
"883 746 OFFCURVE",
"890 723 OFFCURVE",
"909 691 OFFCURVE",
"916 674 OFFCURVE",
"916 644 OFFCURVE",
"924 616 OFFCURVE",
"938 592 OFFCURVE",
"946 576 OFFCURVE",
"952 508 OFFCURVE",
"976 459 OFFCURVE",
"1012 460 QCURVE SMOOTH"
);
},
{
closed = 1;
nodes = (
"216 265 OFFCURVE",
"252 248 OFFCURVE",
"296 261 OFFCURVE",
"323 299 OFFCURVE",
"335 302 OFFCURVE",
"351 296 OFFCURVE",
"364 292 OFFCURVE",
"389 292 OFFCURVE",
"424 312 OFFCURVE",
"446 347 OFFCURVE",
"439 386 OFFCURVE",
"446 400 OFFCURVE",
"463 415 OFFCURVE",
"474 424 OFFCURVE",
"499 450 OFFCURVE",
"492 499 OFFCURVE",
"473 540 OFFCURVE",
"474 558 OFFCURVE",
"483 581 OFFCURVE",
"505 668 OFFCURVE",
"415 733 OFFCURVE",
"400 755 OFFCURVE",
"391 776 OFFCURVE",
"384 793 OFFCURVE",
"376 800 QCURVE SMOOTH",
"352 824 OFFCURVE",
"296 818 OFFCURVE",
"261 771 OFFCURVE",
"280 668 OFFCURVE",
"229 668 OFFCURVE",
"222 678 OFFCURVE",
"212 717 OFFCURVE",
"180 754 OFFCURVE",
"133 771 OFFCURVE",
"104 760 QCURVE SMOOTH",
"76 749 OFFCURVE",
"58 710 OFFCURVE",
"64 673 OFFCURVE",
"71 660 OFFCURVE",
"102 624 OFFCURVE",
"117 594 OFFCURVE",
"99 558 OFFCURVE",
"100 484 OFFCURVE",
"153 421 OFFCURVE",
"216 416 QCURVE SMOOTH",
"246 414 OFFCURVE",
"284 435 OFFCURVE",
"318 470 OFFCURVE",
"337 476 OFFCURVE",
"359 449 OFFCURVE",
"348 422 OFFCURVE",
"327 397 OFFCURVE",
"317 383 OFFCURVE",
"312 367 OFFCURVE",
"294 363 OFFCURVE",
"268 366 OFFCURVE",
"243 365 OFFCURVE",
"214 340 OFFCURVE",
"201 301 OFFCURVE",
"208 284 QCURVE SMOOTH"
);
}
);
width = 1336;
}
);
note = at;
unicode = 0040;
},
